<svg xmlns="http://www.w3.org/2000/svg" viewBox="0 0 190.42 94.53"><defs><style>.cls-1{isolation:isolate;}.cls-2{fill:#ffab00;}.cls-3{fill:#dbdbe9;}.cls-4{fill:#646184;}.cls-5{fill:#52506d;}.cls-6{fill:#d6e9f9;}.cls-7{fill:#3e3e5f;}.cls-8{fill:#aec7d9;}.cls-9{fill:#ff925c;}.cls-10{fill:coral;}.cls-11{fill:#bacad9;}.cls-12{fill:#ff8a56;}.cls-13{fill:#c9dbea;}.cls-14{fill:#99aebe;}.cls-15{fill:#b0c8db;}.cls-16{fill:#a6becf;}.cls-17{fill:#979f74;}.cls-18{fill:#9ea679;}.cls-19{fill:#9fa77a;}.cls-20{fill:#5e5c7c;}.cls-21{fill:#c6c6de;}.cls-22{fill:#5e5c7d;}.cls-23{fill:#656386;}.cls-24{fill:#c2c2db;}.cls-25{fill:#383855;}.cls-26{fill:#404062;}.cls-27{fill:#3f3f61;}.cls-28{fill:#fff;}.cls-29{fill:#fcfcff;}.cls-30{fill:#656286;}.cls-31{fill:#a5bcce;}.cls-32{fill:#889aa9;}.cls-33{fill:#98aebe;}.cls-34{fill:#aac1d3;}.cls-35{fill:#a5bbcd;}.cls-36{fill:#b1c9dc;}.cls-37{fill:#a6bdce;}.cls-38{fill:#c7d8e7;}.cls-39{fill:#575573;}.cls-40{fill:#626083;}.cls-41{fill:#acbbc8;}.cls-42{fill:#9cb2c3;}.cls-43{fill:#a9c1d3;}.cls-44{fill:#a3b9cb;}.cls-45{fill:#8ca0ae;}.cls-46{fill:#c6d8e7;}.cls-47{fill:#cfe1f0;}.cls-48{fill:#becfde;}.cls-49{fill:#626082;}.cls-50{fill:#68668a;}.cls-51{fill:#4d4b66;}.cls-52{fill:#f8f8ff;}.cls-53{fill:#dcdce5;}.cls-54{fill:#f7f7ff;}.cls-55{fill:#3f3f60;}.cls-56{fill:#c3c3cf;}.cls-57{fill:#dcdcea;}.cls-58{fill:#abbac7;}.cls-59{fill:#32324c;}.cls-60{fill:#3a3a58;}.cls-61{fill:#3c3c5c;}.cls-62{fill:#fefeff;}.cls-63{fill:#bebeca;}.cls-64{fill:#f5f5ff;}.cls-65{fill:#ececf6;}.cls-66{fill:#eaeaf4;}.cls-67{fill:#e5e5f4;}.cls-68{fill:#c9c9d6;}.cls-69{fill:#dedeec;}.cls-70{fill:#a1b8c9;}.cls-71{fill:#b8d1e5;}.cls-72{fill:#b2cbde;}.cls-73{fill:#93a8b8;}.cls-74{fill:#a5b3c0;}.cls-75{fill:#605e7f;}.cls-76{fill:#d7d7e0;}.cls-77{fill:#9c9cb0;}.cls-78{fill:#636183;}.cls-79{fill:#a9a9bf;}.cls-80{fill:#e1e1ea;}.cls-81{fill:#afafc5;}.cls-82{fill:#5a5877;}.cls-83{fill:#f3f3fe;}.cls-84{fill:#f4f4fe;}.cls-85{fill:#e8e8f2;}.cls-86{fill:#f9f9ff;}.cls-87{fill:#f3f3fd;}.cls-88{fill:#fbfbff;}.cls-89{fill:#cfcfd8;}.cls-90{fill:#bebed6;}.cls-91{fill:#c3c3db;}.cls-92{fill:#4f4d69;}.cls-93{fill:#cecedb;}.cls-94{fill:#e3e3f1;}.cls-95{fill:#cfcfdc;}.cls-96{fill:#a9a9b3;}.cls-97{fill:#f6f6ff;}.cls-98{fill:#bebec6;}.cls-99{fill:#dbdbe5;}.cls-100{fill:#b6b6cd;}.cls-101{fill:#363653;}.cls-102{fill:#b4b4cb;}.cls-103{fill:#f1f1fc;}.cls-104{fill:#efeff9;}.cls-105{fill:#d0d0d9;}.cls-106{fill:#c8c8d0;}.cls-107{fill:#dfdfe9;}.cls-108{fill:#e4e4ee;}.cls-109{fill:#dcdce6;}.cls-110{fill:#5b5979;}.cls-111{fill:#9cb2c2;}.cls-112{fill:#e0e0e9;}.cls-113{fill:#b4b4bf;}.cls-114{fill:#d4d4e2;}.cls-115{fill:#e6e6f5;}.cls-116{fill:#d5d5e3;}.cls-117{fill:#c5c5d1;}.cls-118{fill:#6a688d;}.cls-119{fill:#ff6200;}.cls-120{fill:#a9a9b4;}.cls-121{fill:#ff6400;}.cls-122{fill:#dd5200;}.cls-123{fill:#adadb8;}.cls-124{fill:#6b688e;}.cls-125{fill:#656285;}.cls-126{fill:#69668b;}.cls-127{fill:#5f5c7d;}.cls-128{fill:#5f5d7f;}.cls-129{fill:#6b688d;}.cls-130{fill:#646285;}.cls-131{fill:#393957;}.cls-132{fill:#5c5979;}.cls-133{fill:#363652;}.cls-134{fill:#575574;}.cls-135{fill:#656387;}.cls-136{fill:#615f81;}.cls-137{fill:#9aafbf;}.cls-138{fill:#969d73;}.cls-139{fill:#676589;}.cls-140{fill:#f87a4d;}.cls-141{fill:#625f81;}.cls-142{fill:#a0b6c7;}.cls-143{fill:#353551;}.cls-144{fill:#babad1;}.cls-145{opacity:0.5;}.cls-146{fill:#48879d;}.cls-147{fill:#4e92ab;}.cls-148{fill:#57a4bf;}.cls-149{fill:#529ab4;}.cls-150{fill:#549fb9;}.cls-151{fill:#5aa9c5;}.cls-152{fill:#5babc7;}.cls-153{fill:#61b7d5;}.cls-154{fill:#5fb2d0;}.cls-155{fill:#63b9d8;}.cls-156{fill:#61b6d4;}.cls-157{fill:#18d39b;}.cls-158{mix-blend-mode:multiply;}.cls-159{fill:#c3c3c3;}</style></defs><title>Heli4</title><g class="cls-1"><g id="Layer_1" data-name="Layer 1"><path class="cls-2" d="M163.28,61.55V81.18L115.86,95.05H48.79L1.36,81.18V61.55L48.79,47.68h67.07Zm-5.9,18.91V62.27l-44-12.86H51.23l-44,12.86V80.46l44,12.86h62.18Z"/><polygon class="cls-3" points="77.45 67.09 96.93 72.79 116.42 67.09 126.16 69.94 77.45 84.19 67.71 81.34 87.19 75.64 67.71 69.94 48.23 75.64 38.48 72.79 87.19 58.54 96.93 61.39 77.45 67.09"/><polygon class="cls-4" points="68.01 57.1 70.31 56.43 70.08 57.11 68.39 57.6 68.01 57.49 68.01 57.1"/><polygon class="cls-5" points="70.31 56.43 68.01 57.1 68.01 54.92 67.95 54.91 67.85 54.94 67.53 54.84 67.53 54.79 67.05 54.65 67.12 54.27 66.91 54.2 65.86 54.13 65.84 54.21 63.92 53.65 63.62 53.56 68.43 52.15 68.76 51.72 69.19 48.79 70.21 49.02 69.86 51.4 69.93 51.48 70.08 51.67 72.14 51.07 72.01 51.46 70.31 56.43"/><polygon class="cls-6" points="68.39 57.6 70.08 57.11 70.01 57.29 68.67 57.68 68.39 57.6"/><polygon class="cls-7" points="68.67 57.68 70.01 57.29 69.77 58.01 68.67 57.68"/><polygon class="cls-8" points="65.84 54.21 65.86 54.13 66.07 54.19 65.06 59.58 64.85 59.51 64.86 59.45 64.89 59.31 64.89 59.28 64.96 58.93 65.82 54.31 65.84 54.21"/><polygon class="cls-9" points="68.67 57.68 69.77 58.01 69.52 58.73 68.01 59.17 68.01 57.49 68.39 57.6 68.67 57.68"/><polygon class="cls-10" points="68.01 59.17 69.52 58.73 69.25 59.52 68.93 59.61 68.86 59.61 68.8 59.65 67.89 59.92 67.48 60.04 67.48 59.32 68.01 59.17"/><polygon class="cls-7" points="67.89 59.92 68.8 59.65 68.61 59.77 68.76 60.24 67.89 59.99 67.89 59.92"/><polygon class="cls-6" points="67.89 59.99 68.76 60.24 68.82 60.42 67.89 60.15 67.89 59.99"/><polygon class="cls-4" points="67.89 60.15 68.82 60.42 68.88 60.61 68.46 61.84 67.89 62.01 67.89 60.15"/><polygon class="cls-7" points="68.93 59.61 69.25 59.52 69.17 59.74 69.13 59.62 68.93 59.61"/><polygon class="cls-11" points="67.89 60.15 67.89 62.01 67.64 62.08 67.48 61.98 67.48 60.04 67.89 59.92 67.89 59.99 67.89 60.15"/><polygon class="cls-12" points="67.48 59.32 67.48 60.04 67.06 59.92 67 59.9 66.59 59.78 66.55 59.77 66.55 59.2 66.22 59.11 66.24 58.96 66.26 58.97 67.48 59.32"/><polygon class="cls-13" points="67.06 59.92 67.48 60.04 67.48 61.98 67.06 61.71 67.06 59.92"/><polygon class="cls-9" points="66.26 58.97 66.24 58.96 66.25 58.9 66.26 58.97"/><polygon class="cls-4" points="67.06 59.92 67.06 61.71 65.79 60.89 66.17 60.78 66.17 60.96 66.59 61.09 67 60.96 67 59.9 67.06 59.92"/><polygon class="cls-11" points="67 60.96 66.59 61.09 66.59 59.78 67 59.9 67 60.96"/><polygon class="cls-13" points="66.59 59.78 66.59 61.09 66.17 60.96 66.17 60.78 66.55 60.67 66.55 59.77 66.59 59.78"/><polygon class="cls-6" points="67.53 54.84 67.85 54.94 67.43 55.06 67.06 54.95 67.48 54.83 67.53 54.84"/><polygon class="cls-10" points="67.48 54.83 67.06 54.95 67.06 55.49 67 55.51 67 54.94 67.53 54.79 67.53 54.84 67.48 54.83"/><polygon class="cls-13" points="67.06 55.49 67.06 54.95 67.43 55.06 67.42 55.59 67.06 55.49"/><polygon class="cls-9" points="67.06 55.49 67.42 55.59 67.42 55.63 67 55.51 67.06 55.49"/><polygon class="cls-10" points="68.01 59.17 67.48 59.32 67.48 55.08 68.01 54.92 68.01 57.1 68.01 57.49 68.01 59.17"/><polygon class="cls-12" points="67.48 55.08 67.48 59.32 66.26 58.97 66.25 58.9 67 54.94 67 55.51 67.42 55.63 67.42 55.59 67.42 55.06 67.48 55.08"/><polygon class="cls-9" points="68.01 54.92 67.48 55.08 67.42 55.06 67.85 54.94 67.95 54.91 68.01 54.92"/><polygon class="cls-9" points="67.53 54.79 67 54.94 67.05 54.65 67.53 54.79"/><polygon class="cls-14" points="67.05 54.65 67 54.94 66.25 58.9 66.24 58.96 66.22 59.11 66.19 59.25 65.06 59.58 66.07 54.19 67.12 54.27 67.05 54.65"/><polygon class="cls-15" points="65.06 59.58 66.19 59.25 66.22 59.11 66.55 59.2 64.03 59.94 63.66 59.8 64.86 59.45 64.85 59.51 65.06 59.58"/><polygon class="cls-16" points="66.07 54.19 65.86 54.13 66.91 54.2 67.12 54.27 66.07 54.19"/><polygon class="cls-14" points="66.55 60.67 66.17 60.78 65.79 60.89 64.84 60.28 64.07 59.96 64.03 59.94 66.55 59.2 66.55 59.77 66.55 60.67"/><polygon class="cls-17" points="63.92 53.65 65.84 54.21 65.82 54.31 63.45 53.62 63.92 53.65"/><polygon class="cls-17" points="63.92 53.65 63.45 53.62 61.15 52.95 61.18 52.89 61.35 52.9 61.71 53 61.76 53.02 62.76 53.31 63.22 53.45 63.62 53.56 63.92 53.65"/><polygon class="cls-18" points="63.45 53.62 65.82 54.31 64.96 58.93 62.58 58.23 63.45 53.62"/><polygon class="cls-18" points="63.45 53.62 62.58 58.23 61.2 57.83 60.88 57.73 60.77 57.7 60.01 57.48 60.6 54.33 61.15 52.95 63.45 53.62"/><polygon class="cls-12" points="62.58 58.23 64.96 58.93 64.89 59.28 64.08 59.05 63.66 58.92 63.24 58.8 63.19 58.78 62.77 58.66 62.35 58.54 61.2 58.2 61.2 57.83 62.58 58.23"/><polygon class="cls-19" points="64.86 59.45 63.66 59.8 63.3 59.66 62.2 59.2 63.35 58.86 63.66 58.95 64.08 59.08 64.89 59.31 64.86 59.45"/><polygon class="cls-19" points="63.35 58.86 62.2 59.2 61.69 58.99 60.49 58.5 60.17 58.35 60.89 58.14 61.2 58.23 62.35 58.57 62.77 58.69 63.19 58.82 63.24 58.83 63.35 58.86"/><polygon class="cls-14" points="60.88 57.73 61.2 57.83 61.2 58.2 61.2 58.23 60.89 58.14 60.17 58.35 59.6 58.1 60.88 57.73"/><polygon class="cls-14" points="60.01 57.48 60.77 57.7 59.71 58.01 60.23 55.28 60.6 54.33 60.01 57.48"/><polygon class="cls-15" points="59.71 58.01 60.77 57.7 60.88 57.73 59.6 58.1 59.49 58.05 59.44 57.9 59.51 57.88 59.5 57.95 59.71 58.01"/><polygon class="cls-8" points="59.71 58.01 59.5 57.95 59.51 57.88 59.54 57.72 59.67 57.04 59.8 56.34 60.23 55.28 59.71 58.01"/><polygon class="cls-14" points="61.35 52.9 61.18 52.89 61.27 52.66 61.77 52.7 61.71 53 61.35 52.9"/><polygon class="cls-20" points="61.71 53 61.77 52.7 61.56 52.64 61.52 52.63 61.65 51.69 62.12 50.52 61.76 53.02 61.71 53"/><polygon class="cls-16" points="61.77 52.7 61.27 52.66 61.28 52.62 61.3 52.62 61.52 52.63 61.56 52.64 61.77 52.7"/><polygon class="cls-5" points="61.52 52.63 61.3 52.62 61.31 52.54 61.65 51.7 61.52 52.63"/><polygon class="cls-5" points="61.31 52.54 61.3 52.62 61.28 52.62 61.31 52.54"/><polygon class="cls-5" points="62.76 53.31 61.76 53.02 62.12 50.52 62.6 49.31 63.51 48.2 62.76 53.31"/><polygon class="cls-5" points="61.2 58.23 61.2 58.2 62.35 58.54 62.35 58.57 61.2 58.23"/><polygon class="cls-13" points="62.35 58.57 62.35 58.54 62.77 58.66 62.77 58.69 62.35 58.57"/><polygon class="cls-11" points="62.77 58.69 62.77 58.66 63.19 58.78 63.19 58.82 62.77 58.69"/><polygon class="cls-4" points="63.19 58.82 63.19 58.78 63.24 58.8 63.24 58.83 63.19 58.82"/><polygon class="cls-13" points="63.24 58.83 63.24 58.8 63.66 58.92 63.66 58.95 63.35 58.86 63.24 58.83"/><polygon class="cls-11" points="63.66 58.95 63.66 58.92 64.08 59.05 64.08 59.08 63.66 58.95"/><polygon class="cls-4" points="64.08 59.08 64.08 59.05 64.89 59.28 64.89 59.31 64.08 59.08"/><polygon class="cls-13" points="59.51 57.88 59.44 57.9 59.43 57.88 59.43 57.69 59.54 57.72 59.51 57.88"/><polygon class="cls-12" points="59.54 57.72 59.43 57.69 59.36 57.66 59.32 57.55 59.54 57 59.67 57.04 59.54 57.72"/><polygon class="cls-12" points="59.67 57.04 59.54 57 59.8 56.34 59.67 57.04"/><polygon class="cls-5" points="59.43 57.69 59.43 57.88 59.36 57.66 59.43 57.69"/><polygon class="cls-21" points="70.21 49.02 69.19 48.79 68.9 48.72 64.31 47.67 63.77 47.87 63.51 48.2 62.6 49.31 62.35 49.26 62.37 49.23 63.61 47.71 64.37 47.42 72.63 49.3 72.9 49.8 72.23 51.51 72.01 51.46 72.14 51.07 72.19 50.95 72.24 50.81 72.58 49.88 72.39 49.52 70.21 49.02"/><polygon class="cls-22" points="68.9 48.72 69.19 48.79 68.76 51.72 68.48 51.57 68.9 48.72"/><polygon class="cls-23" points="72.24 50.81 72.19 50.95 72.14 51.07 70.08 51.67 69.93 51.48 72.24 50.81"/><polygon class="cls-24" points="72.01 51.46 72.23 51.51 67.87 64.33 67.22 64.52 63.81 60.31 59.27 58.3 59.03 57.59 62.35 49.26 62.6 49.31 62.12 50.52 61.65 51.69 61.31 52.54 61.28 52.62 61.27 52.66 61.18 52.89 61.15 52.95 60.6 54.33 60.23 55.28 59.8 56.34 59.54 57 59.32 57.55 59.36 57.66 59.43 57.88 59.44 57.9 59.49 58.05 59.6 58.1 60.17 58.35 60.49 58.5 61.72 59.04 63.18 59.69 63.78 59.95 63.99 60.05 64.27 60.39 67.34 64.19 67.69 64.09 68.24 62.47 68.36 62.12 68.46 61.84 68.88 60.61 69.02 60.2 69.17 59.74 69.25 59.52 69.52 58.73 69.77 58.01 70.01 57.29 70.08 57.11 70.31 56.43 72.01 51.46"/><polygon class="cls-25" points="69.02 60.2 68.88 60.61 68.82 60.42 68.76 60.24 68.61 59.77 68.88 59.78 69.02 60.2"/><polygon class="cls-14" points="68.36 62.12 68.24 62.47 68.03 62.34 68.03 62.22 68.36 62.12"/><polygon class="cls-26" points="68.24 62.47 67.69 64.09 67.34 64.19 64.27 60.39 64.84 60.28 65.79 60.89 67.06 61.71 67.48 61.98 67.64 62.08 67.7 62.12 68.03 62.34 68.24 62.47"/><polygon class="cls-27" points="64 60.05 63.78 59.95 64.07 59.96 64 60.05"/><polygon class="cls-28" points="59.03 57.59 59.27 58.3 63.81 60.31 67.22 64.52 67.87 64.33 72.23 51.51 72.53 51.58 67.73 65.6 63.62 60.53 58.48 58.25 62.08 49.2 62.35 49.26 59.03 57.59"/><polygon class="cls-29" points="62.08 49.2 58.48 58.25 53.74 57.64 51.39 58.33 47.92 59.63 53.94 46.14 54.17 46.23 48.58 58.69 48.88 59.15 53.77 57.37 57.94 57.91 58.55 57.45 61.87 49.12 62.08 49.2"/><polygon class="cls-28" points="62.08 49.2 61.87 49.12 61.89 49.09 63.14 47.57 63.11 47.05 56.67 44.63 55.93 44.84 54.17 46.23 53.94 46.14 57.84 43.09 64.9 45.74 62.08 49.2"/><polygon class="cls-30" points="87.88 17.81 146.71 0.6 152.77 3.31 92.06 21.07 91.52 20.64 91.79 20.69 92.41 20.51 92.41 20.17 92.18 19.92 91.34 19.85 90.73 20.03 89.5 19.08 90.31 19.06 90.71 18.53 90.71 18.14 89.61 17.82 88.1 17.94 88.08 17.96 87.88 17.81"/><polygon class="cls-31" points="87.69 18.53 87.69 18.38 88.8 18.7 88.8 19.77 87.69 19.45 87.69 19.39 88.66 19.1 88.66 18.73 87.83 18.48 87.69 18.53"/><polygon class="cls-15" points="88.8 18.7 87.69 18.38 87.88 18.17 88.08 17.96 88.1 17.94 89.61 17.82 90.71 18.14 90.31 18.58 88.8 18.7"/><polygon class="cls-31" points="88.8 19.77 88.8 18.7 90.31 18.58 90.31 19.06 89.5 19.08 89.5 19.65 89.61 19.71 88.8 19.77"/><polygon class="cls-11" points="88.66 19.1 87.69 19.39 86.76 19.66 86.19 19.45 88.66 18.73 88.66 19.1"/><polygon class="cls-32" points="90.31 18.58 90.71 18.14 90.71 18.53 90.31 19.06 90.31 18.58"/><polygon class="cls-6" points="87.83 18.48 88.66 18.73 86.19 19.45 85.46 19.18 87.69 18.53 87.83 18.48"/><polygon class="cls-33" points="90.72 20.42 90.72 20.33 90.72 20.04 90.94 20.28 90.94 20.88 90.89 20.82 90.92 20.81 90.92 20.6 90.75 20.42 90.72 20.42"/><polygon class="cls-34" points="90.94 20.88 90.94 20.28 91.79 20.35 91.79 20.69 91.52 20.64 91.52 20.77 91.79 20.92 91.79 20.95 90.94 20.88"/><polygon class="cls-15" points="90.94 20.28 90.72 20.04 91.34 19.85 92.18 19.92 92.41 20.17 91.79 20.35 90.94 20.28"/><polygon class="cls-14" points="91.79 20.95 91.79 20.92 91.82 20.94 91.79 20.95"/><polygon class="cls-14" points="91.79 20.69 91.79 20.35 92.41 20.17 92.41 20.51 91.79 20.69"/><polygon class="cls-6" points="90.72 20.42 90.75 20.42 90.92 20.6 89.52 20.71 89.52 20.68 89.15 20.54 90.72 20.42"/><polygon class="cls-13" points="90.92 20.6 90.92 20.81 90.89 20.82 89.76 20.91 89.52 20.84 89.52 20.71 90.92 20.6"/><polygon class="cls-13" points="86.7 21.14 85.99 21.2 86.04 21 86.7 21.14"/><polygon class="cls-35" points="75.32 17.69 75.32 17.54 75.32 17.19 81.63 18.81 81.63 20.03 81.21 19.87 79.51 19.24 79.13 19.1 78.79 18.98 75.32 17.69"/><polygon class="cls-8" points="76.45 16.86 82.37 18.16 81.99 18.21 81.81 18.33 81.81 18.59 81.99 18.7 81.63 18.81 75.32 17.19 75.58 17.11 76.19 16.93 76.45 16.86"/><polygon class="cls-36" points="81.63 18.81 81.99 18.7 82.42 18.77 82.85 18.73 83.03 18.59 83.03 18.4 83.21 18.34 85.46 19.18 86.19 19.45 86.76 19.66 89.15 20.54 89.52 20.68 89.26 20.76 88.65 20.94 88.39 21.01 81.63 18.81"/><polygon class="cls-8" points="83.21 18.34 83.03 18.4 83.03 18.33 82.97 18.29 83.21 18.34"/><polygon class="cls-13" points="78.79 18.98 79.13 19.1 79.49 20.93 79.19 21.01 78.79 18.98"/><polygon class="cls-37" points="81.63 20.03 81.63 18.81 88.39 21.01 88.39 21.52 86.7 21.14 86.04 21 85.74 20.93 85.39 20.86 85.33 20.84 83.84 20.51 83.75 20.5 83.36 20.41 82.86 20.3 81.63 20.03"/><polygon class="cls-6" points="69.86 15.09 76.19 16.93 75.58 17.11 69.02 15.19 69.63 15.02 69.86 15.09"/><polygon class="cls-14" points="69.63 15.02 69.02 15.19 69.02 15.7 69.35 15.79 68.78 15.96 68.78 15.07 69.86 14.75 69.86 15.09 69.63 15.02"/><polygon class="cls-13" points="75.32 17.54 69.35 15.79 69.02 15.7 69.02 15.19 75.58 17.11 75.32 17.19 75.32 17.54"/><polygon class="cls-15" points="69.86 14.75 68.78 15.07 68.09 14.86 69.17 14.55 69.86 14.75"/><polygon class="cls-31" points="68.78 15.07 68.78 15.96 68.09 15.76 68.09 14.86 68.78 15.07"/><polygon class="cls-38" points="79.49 20.93 79.13 19.1 79.51 19.24 79.82 20.83 79.49 20.93"/><polygon class="cls-39" points="76.96 23.39 76.96 23.75 18.13 40.96 18.13 40.02 76.96 22.81 76.96 23.39"/><polygon class="cls-22" points="18.13 40.96 12.07 39.19 18.13 40.02 18.13 40.96"/><polygon class="cls-40" points="12.07 39.19 72.43 21.53 72.43 21.8 72.66 21.96 73.5 21.94 73.94 21.81 74.12 21.87 74.2 21.9 74.46 21.98 74.13 22.35 74.13 22.74 75.23 22.89 76.63 22.7 76.74 22.74 76.96 22.81 18.13 40.02 12.07 39.19"/><polygon class="cls-32" points="76.96 22.81 76.74 22.74 76.74 22.55 77.15 22.11 77.15 22.47 77.15 23.18 76.96 23.39 76.96 22.81"/><polygon class="cls-11" points="77.15 22.47 77.15 22.11 77.12 22.1 82.06 20.66 82.06 21.03 81.48 21.2 81.24 21.27 80.9 21.37 79.92 21.66 79.65 21.74 79.35 21.83 77.15 22.47"/><polygon class="cls-15" points="74.13 22.35 74.46 21.98 74.53 21.91 76.04 21.79 76.29 21.86 77.12 22.1 77.15 22.11 76.74 22.55 75.23 22.67 74.13 22.35"/><polygon class="cls-6" points="77.12 22.1 76.29 21.86 76.89 21.69 77.81 21.42 79.19 21.01 79.49 20.93 79.82 20.83 81.08 20.46 81.23 20.41 81.48 20.59 82.06 20.66 77.12 22.1"/><polygon class="cls-13" points="76.29 21.86 76.04 21.79 74.53 21.91 74.46 21.98 74.2 21.9 76.89 21.69 76.29 21.86"/><polygon class="cls-31" points="76.74 22.55 76.74 22.74 76.63 22.7 75.23 22.89 75.23 22.67 76.74 22.55"/><polygon class="cls-31" points="74.13 22.35 75.23 22.67 75.23 22.89 74.13 22.74 74.13 22.35"/><polygon class="cls-14" points="74.12 21.58 74.12 21.7 74.12 21.87 73.94 21.81 73.5 21.94 73.5 21.77 74.12 21.58"/><polygon class="cls-6" points="74.12 21.87 74.12 21.7 77.81 21.42 76.89 21.69 74.2 21.9 74.12 21.87"/><polygon class="cls-15" points="73.9 21.34 74.12 21.58 73.5 21.77 72.66 21.7 72.43 21.45 73.05 21.27 73.9 21.34"/><polygon class="cls-33" points="72.43 21.8 72.43 21.53 72.43 21.45 72.66 21.7 72.66 21.96 72.43 21.8"/><polygon class="cls-34" points="72.66 21.7 73.5 21.77 73.5 21.94 72.66 21.96 72.66 21.7"/><polygon class="cls-14" points="89.52 20.71 89.52 20.84 89.26 20.76 89.52 20.68 89.52 20.71"/><polygon class="cls-6" points="89.26 20.76 89.52 20.84 89.76 20.91 95.48 22.58 94.98 22.73 94.98 22.79 88.65 20.94 89.26 20.76"/><polygon class="cls-14" points="88.39 21.52 88.39 21.01 88.65 20.94 88.65 21.44 88.39 21.52"/><polygon class="cls-31" points="94.98 22.79 94.98 22.73 95.67 22.93 95.67 23.82 94.98 23.62 94.98 23.29 94.98 22.79"/><polygon class="cls-13" points="88.65 21.44 88.65 20.94 94.98 22.79 94.98 23.29 88.65 21.44"/><polygon class="cls-41" points="85.99 21.2 83.49 32.49 83.4 32.87 83.06 32.97 85.74 20.93 86.04 21 85.99 21.2"/><polygon class="cls-15" points="95.48 22.58 96.06 22.41 96.75 22.62 95.67 22.93 94.98 22.73 95.48 22.58"/><polygon class="cls-15" points="83.4 32.87 83.49 32.49 83.75 32.67 83.36 32.95 82.42 33.07 81.48 32.95 81.08 32.67 81.43 32.43 81.44 32.48 81.78 32.58 81.81 32.57 81.81 32.67 81.99 32.8 82.42 32.85 82.74 32.81 82.73 32.87 83.06 32.97 83.4 32.87"/><polygon class="cls-13" points="81.44 32.48 81.43 32.43 79.35 21.83 79.65 21.74 81.78 32.58 81.44 32.48"/><polygon class="cls-38" points="81.81 32.57 81.78 32.58 79.65 21.74 79.92 21.66 79.99 21.66 81.81 30.96 81.81 32.57"/><polygon class="cls-13" points="79.99 21.66 79.92 21.66 80.9 21.37 81.33 21.34 81.33 21.55 81.08 21.57 79.99 21.66"/><polygon class="cls-6" points="81.33 21.34 80.9 21.37 81.24 21.27 81.33 21.34"/><polygon class="cls-14" points="96.75 23.51 95.67 23.82 95.67 22.93 96.75 22.62 96.75 23.51"/><polygon class="cls-13" points="83.06 32.97 82.73 32.87 82.74 32.81 82.85 32.33 83.03 31.53 85.31 21.25 85.35 21.04 85.39 20.86 85.74 20.93 83.06 32.97"/><polygon class="cls-15" points="81.08 19.96 81.21 19.87 81.63 20.03 82.86 20.3 82.42 20.35 81.48 20.24 81.08 19.96"/><polygon class="cls-42" points="81.08 19.96 81.48 20.24 81.48 20.59 81.23 20.41 81.08 20.46 81.08 19.96"/><polygon class="cls-43" points="81.48 20.24 82.42 20.35 82.42 22.13 81.99 22.08 81.81 22.05 81.48 22.01 81.48 21.2 82.06 21.03 82.06 20.66 81.48 20.59 81.48 20.24"/><polygon class="cls-42" points="81.48 22.01 81.08 21.74 81.08 21.57 81.33 21.55 81.33 21.34 81.24 21.27 81.48 21.2 81.48 22.01"/><polygon class="cls-44" points="82.42 20.35 82.86 20.3 83.36 20.41 83.36 22.01 83.03 22.05 82.85 22.08 82.42 22.13 82.42 20.35"/><polygon class="cls-45" points="83.36 22.01 83.36 20.41 83.75 20.5 83.75 20.54 83.75 20.97 83.75 21.16 83.75 21.38 83.75 21.74 83.36 22.01"/><polygon class="cls-11" points="83.75 20.54 83.75 20.5 83.84 20.51 83.75 20.54"/><polygon class="cls-6" points="83.75 20.97 85.33 20.84 85.39 20.86 85.35 21.04 83.75 21.16 83.75 20.97"/><polygon class="cls-13" points="83.75 21.16 85.35 21.04 85.31 21.25 83.75 21.38 83.75 21.16"/><polygon class="cls-46" points="82.74 32.81 82.42 32.85 82.42 22.13 82.85 22.08 82.85 32.33 82.74 32.81"/><polygon class="cls-42" points="81.08 32.67 81.48 32.95 81.48 33.64 81.08 33.37 81.08 32.67"/><polygon class="cls-43" points="81.48 32.95 82.42 33.07 82.42 33.76 81.99 33.71 81.81 33.69 81.48 33.64 81.48 32.95"/><polygon class="cls-45" points="83.36 32.95 83.75 32.67 83.75 33.37 83.36 33.64 83.36 32.95"/><polygon class="cls-44" points="82.42 33.76 82.42 33.07 83.36 32.95 83.36 33.64 83.03 33.69 82.85 33.71 82.42 33.76 82.42 33.76"/><polygon class="cls-46" points="82.42 33.76 82.85 33.71 82.85 35.09 82.42 35.14 82.42 33.76"/><polygon class="cls-47" points="82.42 32.85 81.99 32.8 81.99 22.08 82.42 22.13 82.42 32.85"/><polygon class="cls-48" points="81.99 32.8 81.81 32.67 81.81 32.57 81.81 30.96 81.81 22.05 81.99 22.08 81.99 32.8"/><polygon class="cls-49" points="105.59 28.82 105.7 28.76 106.94 28.59 106.18 28.99 105.59 28.82"/><polygon class="cls-50" points="106.18 28.99 106.94 28.59 108.33 29.53 107.19 30.12 106.35 29.04 106.18 28.99"/><polygon class="cls-51" points="108.92 34.18 108.87 34.2 108.72 33.41 109.55 32.98 108.92 34.18"/><polygon class="cls-39" points="109.55 32.98 108.72 33.41 108.38 31.69 109.32 31.2 109.55 32.98"/><polygon class="cls-4" points="107.19 30.12 108.33 29.53 109.32 31.2 108.38 31.69 108.36 31.62 107.19 30.12"/><polygon class="cls-52" points="106.35 29.04 107.19 30.12 108.36 31.62 101.98 33.48 101.06 32.08 97.67 33.06 98.6 34.47 97.46 34.81 96.53 33.4 93.15 34.39 94.08 35.8 92.09 36.38 91.16 34.97 90.25 35.24 91.17 36.65 90.26 36.91 89.33 35.51 88.42 35.77 89.35 37.18 88.43 37.45 87.51 36.04 86.59 36.31 87.52 37.72 79.86 39.95 80.18 36.69 106.35 29.04"/><polygon class="cls-53" points="108.87 34.2 108.96 34.66 109.18 35.75 109.4 36.89 109.61 37.92 109.66 38.18 106.25 37.94 99.48 37.82 92.47 39.52 78.78 43.52 79.86 39.95 87.52 37.72 87.66 39.67 88.57 39.4 88.43 37.45 89.35 37.18 89.48 39.13 90.4 38.87 90.26 36.91 91.17 36.65 91.31 38.6 92.22 38.33 92.09 36.38 94.08 35.8 94.21 37.75 97.6 36.76 97.46 34.81 98.6 34.47 98.74 36.43 102.12 35.44 101.98 33.48 108.36 31.62 108.38 31.69 108.72 33.41 108.87 34.2"/><polygon class="cls-54" points="109.18 35.75 108.96 34.66 122.16 31 122.73 30.84 125.16 30.16 126.98 29.66 128.19 29.32 150.84 23.03 151.75 23.3 109.18 35.75"/><polygon class="cls-28" points="75.15 37.55 77.8 36 80.18 36.69 79.86 39.95 73.99 38.24 75.15 37.55"/><polygon class="cls-25" points="91.31 38.6 91.17 36.65 92.09 36.38 92.22 38.33 91.31 38.6"/><polygon class="cls-55" points="92.09 36.38 91.17 36.65 90.25 35.24 91.16 34.97 92.09 36.38"/><polygon class="cls-7" points="82.42 35.14 82.85 35.09 83.03 34.97 83.03 34.65 83.36 34.69 83.75 34.97 83.36 35.24 82.42 35.35 81.48 35.24 81.08 34.97 81.48 34.69 81.81 34.65 81.81 34.97 81.99 35.09 82.42 35.14"/><polygon class="cls-55" points="89.33 35.51 90.26 36.91 89.35 37.18 88.42 35.77 89.33 35.51"/><polygon class="cls-25" points="89.35 37.18 90.26 36.91 90.4 38.87 89.48 39.13 89.35 37.18"/><polygon class="cls-56" points="94.21 37.75 94.08 35.8 97.46 34.81 97.6 36.76 94.21 37.75"/><polygon class="cls-57" points="97.46 34.81 94.08 35.8 93.15 34.39 96.53 33.4 97.46 34.81"/><polygon class="cls-55" points="87.51 36.04 88.43 37.45 87.52 37.72 86.59 36.31 87.51 36.04"/><polygon class="cls-25" points="87.52 37.72 88.43 37.45 88.57 39.4 87.66 39.67 87.52 37.72"/><polygon class="cls-57" points="98.6 34.47 97.67 33.06 101.06 32.08 101.98 33.48 98.6 34.47"/><polygon class="cls-54" points="106.35 29.04 80.18 36.69 77.8 36 81.08 35.04 81.08 35.34 81.48 35.62 82.42 35.73 83.36 35.62 83.75 35.34 83.75 34.97 83.36 34.69 83.03 34.65 83.03 34.47 98.22 30.02 98.2 30.51 98.94 30.72 99.95 30.64 100.22 30.35 100.22 29.88 99.81 29.76 99.76 29.57 103.97 28.34 105.59 28.82 106.18 28.99 106.35 29.04"/><polygon class="cls-56" points="98.6 34.47 101.98 33.48 102.12 35.44 98.74 36.43 98.6 34.47"/><polygon class="cls-58" points="83.03 34.97 82.85 35.09 82.85 33.71 83.03 33.69 83.03 34.47 83.03 34.65 83.03 34.97"/><polygon class="cls-25" points="81.08 35.34 81.08 35.04 81.08 34.97 81.48 35.24 81.48 35.62 81.08 35.34"/><polygon class="cls-59" points="83.75 35.34 83.36 35.62 83.36 35.24 83.75 34.97 83.75 35.34"/><polygon class="cls-60" points="83.36 35.62 82.42 35.73 82.42 35.35 83.36 35.24 83.36 35.62"/><polygon class="cls-61" points="82.42 35.73 81.48 35.62 81.48 35.24 82.42 35.35 82.42 35.73"/><polygon class="cls-48" points="81.99 35.09 81.81 34.97 81.81 34.65 81.81 33.69 81.99 33.71 81.99 35.09"/><polygon class="cls-47" points="82.42 35.14 81.99 35.09 81.99 33.71 82.42 33.76 82.42 35.14"/><path class="cls-62" d="M79.87,40l-1.09,3.57-3.16-.92-3.16-.93L74,38.24Zm-5.74-1.21L73,41.36,78.59,43l.81-2.65,0-.07-1.5-.44Z"/><path class="cls-54" d="M74,38.24l-1.54,3.44,3.16.93-6,1.77V39.75l-1.23.36-2.05,5.22-1.38.4-7.06-2.65,3.28-1.43,14-4.1ZM62.12,44.56l4.27-1.25-5.22-1.53-3,1.3Z"/><polygon class="cls-63" points="69.57 39.75 69.57 44.37 66.28 45.33 68.33 40.11 69.57 39.75"/><path class="cls-54" d="M66.28,45.33l3.29-1,6-1.77,3.16.92,13.7-4,5.7,1.67L78.85,46.84l-4.9,1L64.9,45.74Zm6.91,0-4.27,1.25,5,1.15,4.45-.87Z"/><polygon class="cls-64" points="92.47 39.52 99.48 37.82 104.37 39.25 98.18 41.19 92.47 39.52"/><polygon class="cls-65" points="99.48 37.82 106.25 37.94 109.01 38.75 104.37 39.25 99.48 37.82"/><polygon class="cls-66" points="106.25 37.94 109.66 38.18 109.61 37.92 111.29 38.05 112.17 38.31 109.01 38.75 106.25 37.94"/><polygon class="cls-67" points="163.43 3.13 163.66 2.93 165.21 3.38 165.12 3.46 164.95 3.4 164.07 3.66 163.79 3.58 163.3 3.39 163.17 3.35 163.42 3.13 163.43 3.13"/><polygon class="cls-63" points="165.12 3.46 165.21 3.38 165.75 3.52 165.85 3.82 165.3 3.51 165.12 3.46"/><polygon class="cls-68" points="165.75 3.52 165.21 3.38 163.66 2.93 164.2 3.07 165.75 3.52"/><polygon class="cls-69" points="163.79 3.58 164.07 3.66 164.03 3.67 163.79 3.58"/><polygon class="cls-14" points="167.46 5.82 167.07 5.72 166.91 5.23 167.07 4.65 167.46 4.32 167.86 4.42 167.93 4.63 168.02 4.91 167.89 5.37 167.86 5.49 167.56 5.75 167.49 5.8 167.46 5.82"/><polygon class="cls-70" points="167.86 4.42 167.46 4.32 165.95 3.87 165.91 3.85 167.06 4.19 167.42 4.29 167.86 4.42"/><polygon class="cls-11" points="167.86 4.42 167.42 4.29 168.58 3.96 168.58 6.12 168.58 6.32 167.56 5.75 167.86 5.49 167.89 5.37 168.22 5.55 168.22 4.54 167.93 4.63 167.86 4.42"/><polygon class="cls-71" points="167.46 4.32 167.07 4.65 166.55 4.5 166.75 4.33 165.95 3.87 167.46 4.32"/><polygon class="cls-72" points="167.07 4.65 166.91 5.23 166.38 5.08 166.03 4.97 165.66 4.87 165.66 4.38 166.12 4.64 166.48 4.74 166.55 4.5 167.07 4.65"/><polygon class="cls-73" points="166.91 5.23 167.07 5.72 167.01 5.7 166.46 5.54 166.53 5.52 166.38 5.08 166.91 5.23"/><polygon class="cls-13" points="168.02 4.91 167.93 4.63 168.22 4.54 168.22 5.55 167.89 5.37 168.02 4.91"/><path class="cls-70" d="M163.16,3.06l.26.07Z"/><polygon class="cls-71" points="162.91 3.27 163.16 3.06 163.42 3.13 163.17 3.35 162.91 3.27"/><polygon class="cls-51" points="168.58 6.12 168.58 3.96 180.56 0.45 180.21 2.71 168.58 6.12"/><polygon class="cls-4" points="180.56 0.45 168.58 3.96 168.22 3.85 180.21 0.34 180.56 0.45"/><polygon class="cls-6" points="168.22 3.85 168.58 3.96 167.42 4.29 167.06 4.19 168.22 3.85"/><polygon class="cls-74" points="168.58 6.32 168.22 6.22 167.49 5.8 167.56 5.75 168.58 6.32"/><polygon class="cls-75" points="160.05 7.41 153.32 9.38 152.96 6.91 161.88 4.3 162.99 3.98 164.03 3.67 164.07 3.66 164.95 3.4 165.3 5.88 161.38 7.03 160.05 7.41"/><polygon class="cls-28" points="160.05 7.41 161.38 7.03 152.63 23.55 151.75 23.3 150.84 23.03 160.05 7.41"/><polygon class="cls-13" points="165.3 5.88 164.95 3.4 165.12 3.46 165.3 3.51 165.3 5.88"/><polygon class="cls-22" points="152.96 6.91 153.32 9.38 152.96 9.28 152.96 6.91"/><polygon class="cls-76" points="164.03 3.67 162.99 3.98 163.3 3.39 163.79 3.58 164.03 3.67"/><polygon class="cls-11" points="165.3 3.51 165.85 3.82 165.91 3.85 165.95 3.87 166.75 4.33 166.55 4.5 166.48 4.74 165.66 4.28 165.66 4.38 165.66 4.87 165.66 5.08 165.66 5.29 166.38 5.08 166.53 5.52 166.46 5.54 165.3 5.88 165.3 3.51"/><polygon class="cls-76" points="165.3 5.88 166.46 5.54 167.01 5.7 161.03 20.99 152.63 23.55 161.38 7.03 165.3 5.88"/><polygon class="cls-6" points="166.38 5.08 165.66 5.29 165.66 5.08 166.03 4.97 166.38 5.08"/><polygon class="cls-74" points="165.66 4.28 166.48 4.74 166.12 4.64 165.66 4.38 165.66 4.28"/><polygon class="cls-73" points="166.03 4.97 165.66 5.08 165.66 4.87 166.03 4.97"/><polygon class="cls-22" points="50.4 68.53 49.67 68.32 47.42 65.28 49.92 66.02 49.92 67.11 50.4 68.53"/><polygon class="cls-77" points="50.4 68.53 49.92 67.11 50.15 67.17 50.96 69.6 50.74 69.53 50.4 68.53"/><polygon class="cls-78" points="49.67 68.32 47.35 65.27 47.42 65.28 49.67 68.32"/><polygon class="cls-79" points="46.3 64.96 44.9 64.07 44.94 63.79 46.34 64.67 46.3 64.96"/><polygon class="cls-28" points="62.08 49.2 64.9 45.74 73.95 47.8 72.53 51.58 72.23 51.51 72.9 49.8 72.63 49.3 64.37 47.42 63.61 47.71 62.37 49.23 62.35 49.26 62.08 49.2"/><polygon class="cls-80" points="45.2 62.01 45.24 61.73 45.44 62.16 45.2 62.01"/><polygon class="cls-81" points="46.3 64.96 46.34 64.67 49.92 65.72 49.92 66.02 47.42 65.28 47.35 65.27 46.3 64.96"/><polygon class="cls-81" points="49.92 67.11 49.92 66.02 50.15 66.08 50.15 67.17 49.92 67.11"/><polygon class="cls-48" points="81.99 18.7 81.81 18.59 81.81 18.33 81.99 18.46 81.99 18.7"/><polygon class="cls-47" points="81.99 18.7 81.99 18.46 82.42 18.51 82.42 18.77 81.99 18.7"/><polygon class="cls-58" points="83.03 18.59 82.85 18.73 82.85 18.46 83.03 18.33 83.03 18.4 83.03 18.59"/><polygon class="cls-46" points="82.85 18.73 82.42 18.77 82.42 18.51 82.85 18.46 82.85 18.73"/><polygon class="cls-82" points="89.5 19.65 89.5 19.08 90.73 20.03 90.72 20.33 89.61 19.71 89.5 19.65"/><polygon class="cls-82" points="91.52 20.77 91.52 20.64 92.06 21.07 91.82 20.94 91.79 20.92 91.52 20.77"/><polygon class="cls-83" points="47.92 59.63 51.39 58.33 49.71 60.05 45.24 61.73 46.39 60.21 47.92 59.63"/><polygon class="cls-84" points="45.24 61.73 49.71 60.05 49.61 63.06 48.54 63.46 45.44 62.16 45.24 61.73"/><polygon class="cls-85" points="48.54 63.46 49.61 63.06 53.55 63.5 53.55 67.08 50.15 66.08 50.15 65.78 49.92 65.72 49.92 63.87 48.54 63.46"/><polygon class="cls-86" points="49.61 63.06 49.71 60.05 54.36 60.57 53.55 63.5 49.61 63.06"/><polygon class="cls-87" points="51.39 58.33 53.74 57.64 58.48 58.25 56.33 58.88 51.39 58.33"/><polygon class="cls-28" points="54.36 60.57 49.71 60.05 51.39 58.33 56.33 58.88 54.36 60.57"/><polygon class="cls-88" points="53.55 63.5 54.36 60.57 59.01 62.77 57.48 65.36 53.55 63.5"/><polygon class="cls-85" points="53.55 67.08 53.55 63.5 57.48 65.36 58.56 66.39 57.17 65.99 57.17 67.84 56.95 67.77 56.95 68.07 53.55 67.08"/><polygon class="cls-86" points="56.33 58.88 58.48 58.25 63.62 60.53 61.27 61.22 56.33 58.88"/><polygon class="cls-28" points="54.36 60.57 56.33 58.88 61.27 61.22 59.01 62.77 54.36 60.57"/><polygon class="cls-89" points="51.69 69.81 50.96 69.6 50.15 67.17 53.55 68.17 54.36 70.59 52.17 69.95 51.69 69.81"/><polygon class="cls-85" points="53.55 68.17 50.15 67.17 50.15 66.08 53.55 67.08 53.55 68.17"/><polygon class="cls-89" points="54.36 70.59 53.55 68.17 56.95 69.16 57.76 71.59 56.45 71.2 54.36 70.59"/><polygon class="cls-85" points="53.55 68.17 53.55 67.08 56.95 68.07 56.95 69.16 53.55 68.17"/><polygon class="cls-81" points="50.15 66.08 49.92 66.02 49.92 65.72 50.15 65.78 50.15 66.08"/><polygon class="cls-90" points="58.55 57.45 57.94 57.91 53.77 57.37 48.88 59.15 48.58 58.69 54.17 46.23 54.34 46.29 54.33 46.33 54.07 46.9 53.86 47.37 48.86 58.58 48.99 58.78 49.01 58.82 49.4 58.68 49.62 58.6 52.2 57.66 52.38 57.59 52.88 57.41 53.64 57.14 53.82 57.07 54.54 57.16 57.38 57.53 57.71 57.57 57.96 57.61 57.99 57.58 58.23 57.4 58.4 57.28 59.32 54.97 60.13 52.93 60.22 52.71 60.78 51.3 61.12 50.46 61.68 49.05 61.87 49.12 58.55 57.45"/><polygon class="cls-9" points="60.22 52.71 60.13 52.93 59.79 52.83 60.22 52.71"/><polygon class="cls-91" points="54.34 46.29 54.17 46.23 55.93 44.84 56.67 44.63 63.11 47.05 63.14 47.57 61.89 49.09 61.87 49.12 61.68 49.05 61.86 48.83 62.12 48.51 62.48 48.06 62.85 47.6 62.83 47.24 62.61 47.16 62.33 47.05 62.13 46.98 61.65 46.8 61.45 46.72 59.52 46 59.32 45.92 59.09 45.84 57.65 45.3 57.31 45.17 56.98 45.05 56.7 44.94 56.53 44.88 55.98 45.03 55.33 45.54 54.88 45.88 54.63 46.07 54.38 46.27 54.34 46.29"/><polygon class="cls-51" points="56.53 44.88 56.7 44.94 55.33 45.54 55.98 45.03 56.53 44.88"/><polygon class="cls-92" points="55.33 45.54 56.7 44.94 56.98 45.05 54.63 46.07 54.88 45.88 55.33 45.54"/><polygon class="cls-5" points="62.85 47.6 62.48 48.06 62.61 47.16 62.83 47.24 62.85 47.6"/><polygon class="cls-92" points="54.07 46.9 54.33 46.33 54.38 46.27 54.63 46.07 56.98 45.05 57.31 45.17 54.48 46.4 54.07 46.9"/><polygon class="cls-92" points="49.01 58.82 48.99 58.78 54.04 47.45 54.8 46.54 57.65 45.3 59.09 45.84 57.63 55.83 54.54 57.16 53.82 57.07 53.64 57.14 57.03 55.67 57.3 55.22 58.57 46.53 58.4 46.28 58.22 46.36 54.47 47.98 54.19 48.44 52.74 57.21 52.76 57.24 52.88 57.41 52.38 57.59 52.56 57.29 54 48.58 53.9 48.58 53.52 49.44 49.39 58.67 49.01 58.82"/><polygon class="cls-92" points="57.38 57.53 54.54 57.16 57.63 55.83 57.55 56.36 57.36 56.48 57.48 56.85 57.38 57.53"/><polygon class="cls-5" points="62.33 47.05 62.12 48.51 61.86 48.83 62.13 46.98 62.33 47.05"/><polygon class="cls-5" points="62.13 46.98 61.86 48.83 61.68 49.05 61.12 50.46 61.65 46.8 62.13 46.98"/><polygon class="cls-92" points="54.38 46.27 54.33 46.33 54.34 46.29 54.38 46.27"/><polygon class="cls-5" points="61.65 46.8 61.12 50.46 60.78 51.3 61.45 46.72 61.65 46.8"/><polygon class="cls-5" points="58.51 54.83 59.32 54.59 59.32 54.86 58.37 55.14 58.04 54.74 59.32 45.92 59.52 46 58.28 54.55 58.51 54.83"/><polygon class="cls-5" points="59.32 45.92 58.04 54.74 58.37 55.14 59.32 54.86 59.32 54.97 58.4 57.28 58.23 57.4 57.89 56.33 57.62 56.32 57.55 56.36 57.63 55.83 59.09 45.84 59.32 45.92"/><polygon class="cls-80" points="46.34 64.67 44.94 63.79 45.2 62.01 45.44 62.16 46.4 64.27 46.34 64.67"/><polygon class="cls-84" points="46.4 64.27 45.44 62.16 48.54 63.46 46.4 64.27"/><polygon class="cls-85" points="46.34 64.67 46.4 64.27 48.54 63.46 49.92 63.87 49.92 65.72 46.34 64.67"/><polygon class="cls-54" points="109.18 35.75 151.75 23.3 152.63 23.55 161.03 20.99 109.4 36.89 109.18 35.75"/><polygon class="cls-93" points="120.47 30.5 120.47 30.18 122.73 30.84 122.16 31 120.47 30.5"/><polygon class="cls-94" points="122.73 30.84 120.47 30.18 122.25 29.31 125.16 30.16 122.73 30.84"/><polygon class="cls-95" points="125.79 28.62 128.19 29.32 126.98 29.66 124.02 28.79 125.79 28.62"/><polygon class="cls-3" points="125.16 30.16 122.25 29.31 124.02 28.79 126.98 29.66 125.16 30.16"/><polygon class="cls-96" points="52.2 70.37 51.69 69.81 52.17 69.95 52.68 70.51 52.2 70.37"/><polygon class="cls-96" points="54.17 71.18 52.2 70.37 52.68 70.51 54.66 71.33 54.17 71.18"/><polygon class="cls-63" points="52.68 70.51 52.17 69.95 54.36 70.59 56.45 71.2 54.66 71.33 52.68 70.51"/><polygon class="cls-6" points="59.9 52.61 60.22 52.71 59.8 52.83 59.43 52.72 59.85 52.6 59.9 52.61"/><polygon class="cls-10" points="59.85 52.6 59.43 52.72 59.43 53.26 59.38 53.27 59.38 52.71 59.9 52.55 59.9 52.61 59.85 52.6"/><polygon class="cls-13" points="59.43 53.26 59.43 52.72 59.8 52.83 59.79 53.36 59.43 53.26"/><polygon class="cls-9" points="59.43 53.26 59.79 53.36 59.79 53.4 59.38 53.27 59.43 53.26"/><polygon class="cls-9" points="59.32 52.69 59.85 52.54 59.9 52.55 59.38 52.71 59.32 52.69"/><polygon class="cls-12" points="59.32 54.97 59.32 54.86 59.32 54.59 59.32 52.69 59.38 52.71 59.38 53.27 59.79 53.4 59.79 53.36 59.79 52.83 60.13 52.93 59.32 54.97"/><polygon class="cls-22" points="65.91 73.07 61.41 71.75 61.41 69.28 63.82 69.61 64.56 69.53 68.41 70.65 68.41 71.16 65.91 73.07"/><polygon class="cls-29" points="73.95 47.8 78.84 46.84 80.59 49.99 72.53 51.58 73.95 47.8"/><polygon class="cls-97" points="80.59 49.99 78.84 46.84 98.18 41.19 99.94 44.34 80.59 49.99"/><polygon class="cls-85" points="72.53 51.58 80.59 49.99 82.33 62.78 82.1 62.83 80.53 51.26 79.6 50.47 73.43 51.68 72.41 52.66 68.05 65.38 68.03 65.54 67.73 65.6 72.53 51.58"/><polygon class="cls-22" points="80.53 51.26 82.1 62.81 81.84 62.88 80.29 51.44 79.53 50.8 73.53 51.98 72.62 52.84 68.29 65.49 68.03 65.54 68.05 65.38 72.41 52.66 73.43 51.68 79.6 50.47 80.53 51.26"/><path class="cls-85" d="M79.52,50.8l.76.64,1.55,11.43L68.29,65.49l4.33-12.64.91-.87ZM69,64.5l.37.6,11.59-2.23.4-.67L80,52.5l-.55-.44-6.23,1.2-.61.58Z"/><path class="cls-85" d="M68.29,65.49l13.54-2.61L82.4,67l-.56.95-12.21,2.4-.77-.69Zm11.09-1.34.08.75,1.95-.38-.08-.75Z"/><polygon class="cls-22" points="68.29 65.49 68.86 69.68 69.63 70.36 81.84 67.97 82.4 67.02 81.84 62.88 82.1 62.83 82.68 67.09 82.16 67.95 69.31 70.48 68.62 69.86 68.03 65.54 68.29 65.49"/><polygon class="cls-98" points="105.96 61.68 99.83 64.55 102.41 62.66 108.43 59.87 105.96 61.68"/><polygon class="cls-99" points="108.43 59.87 102.41 62.66 102.34 62.13 101.94 59.22 107.66 57.06 107.55 56.28 101.84 58.44 100.49 48.43 106.19 46.27 106.08 45.49 100.38 47.65 99.94 44.34 106.06 42.28 108.43 59.87"/><polygon class="cls-98" points="102.41 62.66 99.83 64.55 98.83 64.84 98.34 64.98 97.57 65.21 83.97 69.19 83.49 69.33 82.72 69.55 80.5 70.2 83.08 68.32 102.41 62.66"/><polygon class="cls-100" points="63.82 69.61 61.41 69.28 60.79 69.2 60.75 68.88 63.78 69.3 63.82 69.61"/><polygon class="cls-81" points="60.75 68.88 60.79 69.2 57.17 68.14 57.17 67.84 60.75 68.88"/><polygon class="cls-77" points="57.98 71.65 57.76 71.59 56.95 69.16 57.17 69.23 57.98 71.65"/><polygon class="cls-101" points="57.98 71.65 57.17 69.23 57.17 68.14 60.79 69.2 61.41 69.28 61.41 71.75 59.95 72.18 57.98 71.65"/><polygon class="cls-81" points="57.17 68.14 57.17 69.23 56.95 69.16 56.95 68.07 57.17 68.14"/><polygon class="cls-63" points="151.18 37.76 149.4 38.28 147.63 38.45 147.63 38.12 149.4 37.26 151.18 36.74 152.95 36.57 152.95 36.89 151.18 37.76"/><polygon class="cls-29" points="63.62 60.53 67.73 65.6 66.27 66.02 61.27 61.22 63.62 60.53"/><polygon class="cls-80" points="66.27 66.02 67.73 65.6 67.87 66.64 66.41 67.06 66.27 66.02"/><polygon class="cls-85" points="67.87 66.64 67.73 65.6 68.03 65.54 68.62 69.86 69.31 70.48 68.41 70.65 68.19 69.06 68.17 68.91 68.17 68.87 68.13 68.56 67.87 66.64"/><polygon class="cls-7" points="68.17 68.87 68.17 68.91 66.64 69.35 66.53 69.32 66.71 69.3 68.17 68.87"/><polygon class="cls-79" points="68.17 68.87 66.71 69.3 66.67 68.99 68.13 68.56 68.17 68.87"/><polygon class="cls-102" points="66.67 68.99 66.71 69.3 66.53 69.32 66.12 69.36 64.56 69.53 63.82 69.61 63.78 69.3 66.67 68.99"/><polygon class="cls-29" points="58.56 66.39 57.48 65.36 59.01 62.77 63.48 67.07 63.02 67.3 58.56 66.39"/><polygon class="cls-103" points="106.06 42.28 99.94 44.34 98.18 41.19 104.37 39.25 106.06 42.28"/><path class="cls-80" d="M99.94,44.34l.45,3.31.11.78,1.35,10,.11.78.39,2.91-.63.18.38-.78-2.16-16-.82-.75L84.7,49l-.55,1.19,2.16,15.94.55.51L83,67.79l-.68-5L80.6,50ZM85.08,61.15l-1.31-9.68L83.29,51l-1.75.51-.33.69,1.31,9.68.49.45,1.74-.51Z"/><polygon class="cls-85" points="82.33 62.78 83.01 67.79 82.16 67.95 82.68 67.09 82.1 62.83 82.33 62.78"/><polygon class="cls-28" points="63.48 67.07 59.01 62.77 61.27 61.22 66.27 66.02 63.48 67.07"/><polygon class="cls-104" points="63.48 67.07 66.27 66.02 66.41 67.06 63.52 67.37 63.48 67.07"/><polygon class="cls-103" points="63.48 67.07 63.52 67.37 63.02 67.3 63.48 67.07"/><polygon class="cls-80" points="102.41 62.66 83.08 68.32 83.01 67.79 86.86 66.66 87.12 66.91 101.53 62.69 101.71 62.32 102.34 62.13 102.41 62.66"/><polygon class="cls-98" points="83.08 68.32 80.5 70.2 65.91 73.07 68.48 71.18 83.08 68.32"/><polygon class="cls-4" points="68.48 71.18 65.91 73.07 68.41 71.16 68.41 70.65 68.48 71.18"/><polygon class="cls-85" points="83.08 68.32 68.48 71.18 68.41 70.65 69.31 70.48 69.55 70.7 81.99 68.25 82.16 67.95 83.01 67.79 83.08 68.32"/><polygon class="cls-98" points="158.19 31 148.22 35.19 147.84 35.07 159.98 30.02 159.05 30.6 158.87 30.71 158.37 30.92 158.19 31"/><polygon class="cls-22" points="69.31 70.48 82.16 67.95 81.99 68.25 69.55 70.7 69.31 70.48"/><polygon class="cls-105" points="112.27 55.29 108.43 59.87 106.06 42.28 110.36 41.18 112.27 55.29"/><polygon class="cls-98" points="143.4 37.21 114.13 49.51 114.28 49.05 142.99 37.09 143.4 37.21"/><polygon class="cls-106" points="114.13 49.51 112.27 55.29 110.36 41.18 113.05 39.89 114.28 49.05 114.13 49.51"/><polygon class="cls-107" points="142.99 37.09 114.28 49.05 113.05 39.89 161.6 23.99 159.98 30.02 147.84 35.07 142.88 33.62 141.13 33.8 139.42 34.34 137.76 35.23 137.8 35.57 142.99 37.09"/><polygon class="cls-64" points="161.6 23.99 113.05 39.89 112.17 38.31 161.45 23.02 161.6 23.99"/><polygon class="cls-108" points="110.36 41.18 106.06 42.28 104.37 39.25 109.01 38.75 110.36 41.18"/><polygon class="cls-109" points="110.36 41.18 109.01 38.75 112.17 38.31 113.05 39.89 110.36 41.18"/><polygon class="cls-54" points="161.45 23.02 112.17 38.31 111.29 38.05 160.76 22.82 161.45 23.02"/><polygon class="cls-93" points="137.8 35.57 137.76 35.23 147.63 38.12 147.63 38.45 143.4 37.21 142.99 37.09 137.8 35.57"/><polygon class="cls-94" points="137.76 35.23 139.42 34.34 149.4 37.26 147.63 38.12 137.76 35.23"/><polygon class="cls-3" points="139.42 34.34 141.13 33.8 151.18 36.74 149.4 37.26 139.42 34.34"/><polygon class="cls-95" points="141.13 33.8 142.88 33.62 147.84 35.07 148.22 35.19 152.95 36.57 151.18 36.74 141.13 33.8"/><polygon class="cls-110" points="86.86 66.66 86.31 66.16 84.14 50.21 84.69 49.03 99.12 44.81 99.93 45.56 102.09 61.54 101.71 62.32 101.4 62.41 101.85 61.48 99.73 45.75 99.07 45.14 84.83 49.31 84.38 50.24 84.38 50.27 85.94 61.73 86.51 65.96 87.17 66.57 86.86 66.66"/><polygon class="cls-110" points="87.12 66.91 86.86 66.66 87.17 66.57 101.4 62.41 101.71 62.32 101.53 62.69 87.12 66.91"/><polygon class="cls-81" points="57.17 68.14 56.95 68.07 56.95 67.77 57.17 67.84 57.17 68.14"/><polygon class="cls-80" points="68.13 68.56 66.67 68.99 66.41 67.06 67.87 66.64 68.13 68.56"/><polygon class="cls-104" points="66.41 67.06 66.67 68.99 63.78 69.3 63.52 67.37 66.41 67.06"/><polygon class="cls-103" points="63.78 69.3 60.75 68.88 60.69 68.45 63.02 67.3 63.52 67.37 63.78 69.3"/><polygon class="cls-29" points="63.02 67.3 60.69 68.45 58.56 66.39 63.02 67.3"/><polygon class="cls-85" points="60.69 68.45 60.75 68.88 57.17 67.84 57.17 65.99 58.56 66.39 60.69 68.45"/><polygon class="cls-111" points="106.19 46.27 100.49 48.43 100.38 47.65 106.08 45.49 106.19 46.27"/><polygon class="cls-111" points="107.66 57.06 101.94 59.22 101.84 58.44 107.55 56.28 107.66 57.06"/><polygon class="cls-55" points="64.03 59.94 64.07 59.96 63.78 59.95 63.18 59.69 63.3 59.66 63.66 59.8 64.03 59.94"/><polygon class="cls-4" points="68.41 70.65 64.56 69.53 66.12 69.36 66.64 69.52 68.19 69.06 68.41 70.65"/><polygon class="cls-27" points="64.84 60.28 64.27 60.39 64 60.05 64.07 59.96 64.84 60.28"/><polygon class="cls-55" points="60.49 58.5 61.69 58.99 61.72 59.04 60.49 58.5"/><polygon class="cls-55" points="61.72 59.04 61.69 58.99 62.2 59.2 63.3 59.66 63.18 59.69 61.72 59.04"/><polygon class="cls-6" points="66.53 69.32 66.64 69.35 68.17 68.91 68.19 69.06 66.64 69.52 66.12 69.36 66.53 69.32"/><polygon class="cls-112" points="109.4 36.89 161.03 20.99 160.76 22.82 111.29 38.05 109.61 37.92 109.4 36.89"/><polygon class="cls-63" points="80.82 78.18 81.12 78.3 81.49 78.45 83.58 78.31 87.17 77.26 87.66 77.12 102.03 72.91 102.52 72.77 109.88 70.61 109.88 71.27 83.53 78.98 81.33 79.13 79.35 78.31 77.8 76.61 76.81 74.18 77.25 73.77 77.27 73.81 77.47 74.31 77.71 74.89 78.2 76.11 79.65 77.69 80.82 78.18"/><polygon class="cls-63" points="81.65 74.23 80.82 74.47 78.54 75.14 78.3 74.55 81.65 73.57 81.65 74.23"/><polygon class="cls-3" points="81.65 73.57 78.3 74.55 77.47 74.31 77.27 73.81 79.87 73.05 81.65 73.57"/><polygon class="cls-113" points="77.47 74.31 78.3 74.55 78.54 75.14 77.71 74.89 77.47 74.31"/><polygon class="cls-63" points="77.71 74.89 78.54 75.14 80.82 74.47 80.82 78.18 79.65 77.69 78.2 76.11 77.71 74.89"/><polygon class="cls-3" points="87.17 77.26 83.58 78.31 83.09 78.17 86.69 77.11 87.17 77.26"/><polygon class="cls-3" points="102.03 72.91 87.66 77.11 87.63 76.84 101.54 72.77 102.03 72.91"/><polygon class="cls-3" points="109.88 70.61 102.52 72.77 102.49 72.49 109.4 70.47 109.88 70.61"/><polygon class="cls-114" points="83.09 78.17 83.58 78.31 81.49 78.45 81.12 78.3 83.09 78.17"/><polygon class="cls-115" points="76.76 73.62 77.25 73.77 76.81 74.18 76.33 74.04 76.76 73.62"/><polygon class="cls-93" points="87.17 77.26 86.69 77.11 86.43 74.54 85.48 72.15 83.99 70.28 82.72 69.55 83.49 69.33 84.19 69.73 85.84 71.8 86.9 74.46 87.18 77.26 87.17 77.26"/><polygon class="cls-113" points="76.81 74.18 77.8 76.61 77.31 76.46 76.33 74.04 76.81 74.18"/><polygon class="cls-96" points="77.8 76.61 79.35 78.31 78.87 78.17 77.31 76.46 77.8 76.61"/><polygon class="cls-96" points="79.35 78.31 81.33 79.13 80.85 78.99 78.87 78.17 79.35 78.31"/><polygon class="cls-116" points="86.9 74.46 85.84 71.8 86.33 71.66 87.38 74.31 86.9 74.46"/><polygon class="cls-69" points="83.97 69.19 84.67 69.59 84.19 69.73 83.49 69.33 83.97 69.19"/><polygon class="cls-117" points="87.18 77.26 86.9 74.46 87.38 74.31 87.63 76.84 87.66 77.11 87.18 77.26"/><polygon class="cls-117" points="102.24 69.97 102.49 72.49 102.52 72.77 102.03 72.91 101.75 70.11 102.24 69.97"/><polygon class="cls-69" points="84.67 69.59 86.33 71.66 85.84 71.8 84.19 69.73 84.67 69.59"/><polygon class="cls-93" points="102.03 72.91 101.54 72.77 101.29 70.2 100.34 67.81 98.84 65.94 97.57 65.21 98.34 64.98 99.04 65.38 100.7 67.45 101.75 70.11 102.03 72.91 102.03 72.91"/><polygon class="cls-116" points="101.75 70.11 100.7 67.45 101.18 67.31 102.24 69.97 101.75 70.11"/><polygon class="cls-69" points="98.83 64.84 99.53 65.24 99.04 65.38 98.34 64.98 98.83 64.84"/><polygon class="cls-69" points="99.53 65.24 101.18 67.31 100.7 67.45 99.04 65.38 99.53 65.24"/><polygon class="cls-15" points="67.89 62.01 68.46 61.84 68.36 62.12 68.03 62.22 67.7 62.12 67.64 62.08 67.89 62.01"/><polygon class="cls-31" points="68.03 62.22 68.03 62.34 67.7 62.12 68.03 62.22"/><polygon class="cls-20" points="62.12 48.51 62.33 47.05 62.61 47.16 62.48 48.06 62.12 48.51"/><polygon class="cls-23" points="63.22 53.45 68.15 52 68.43 52.15 63.62 53.56 63.22 53.45"/><polygon class="cls-118" points="68.15 52 68.48 51.57 68.76 51.72 68.43 52.15 68.15 52"/><polygon class="cls-3" points="99.81 29.76 100.22 29.88 99.95 30.17 98.94 30.25 98.2 30.04 98.48 29.74 98.65 29.73 98.58 30.01 99.04 30.14 99.68 30.09 99.85 29.91 99.81 29.76"/><polygon class="cls-119" points="98.58 30.01 98.65 29.73 98.8 29.07 99.1 29.15 99.04 30.14 98.58 30.01"/><polygon class="cls-93" points="99.95 30.64 98.94 30.72 98.94 30.25 99.95 30.17 99.95 30.64"/><polygon class="cls-120" points="99.95 30.64 99.95 30.17 100.22 29.88 100.22 30.35 99.95 30.64"/><polygon class="cls-119" points="99.04 30.14 99.1 29.15 99.51 29.12 99.68 30.09 99.04 30.14"/><polygon class="cls-121" points="98.91 28.94 99.32 28.91 99.62 29 99.51 29.12 99.1 29.15 98.8 29.07 98.91 28.94"/><polygon class="cls-122" points="99.51 29.12 99.62 29 99.76 29.57 99.81 29.76 99.85 29.91 99.68 30.09 99.51 29.12"/><polygon class="cls-93" points="98.94 30.25 98.94 30.72 98.2 30.51 98.2 30.04 98.94 30.25"/><polygon class="cls-123" points="54.48 46.4 57.31 45.17 54.48 46.4 54.07 46.9 54.48 46.4"/><polygon class="cls-123" points="52.24 57.16 53.51 49.44 52.24 57.16 51.99 57.58 49.62 58.6 51.99 57.58 52.24 57.16"/><polygon class="cls-5" points="57.38 57.53 57.48 56.85 57.71 57.57 57.38 57.53"/><polygon class="cls-124" points="54.07 46.9 54.48 46.4 54.8 46.54 54.04 47.45 53.86 47.37 54.07 46.9"/><polygon class="cls-125" points="54.8 46.54 54.48 46.4 57.31 45.17 57.65 45.3 54.8 46.54"/><polygon class="cls-126" points="53.86 47.37 54.04 47.45 48.99 58.78 48.86 58.58 53.86 47.37"/><polygon class="cls-123" points="58.24 46.39 58.22 46.36 58.24 46.39 56.98 55.09 56.71 55.54 52.76 57.24 56.71 55.54 56.98 55.09 58.24 46.39"/><polygon class="cls-51" points="58.24 46.39 58.22 46.36 58.4 46.28 58.57 46.53 58.24 46.39"/><polygon class="cls-127" points="58.24 46.39 58.57 46.53 57.3 55.22 56.98 55.09 58.24 46.39"/><polygon class="cls-128" points="52.24 57.16 53.52 49.44 53.9 48.58 54 48.58 52.56 57.29 52.24 57.16"/><polygon class="cls-129" points="52.24 57.16 52.56 57.29 52.38 57.59 52.2 57.66 51.99 57.58 52.24 57.16"/><polygon class="cls-129" points="56.98 55.09 57.3 55.22 57.03 55.67 56.71 55.54 56.98 55.09"/><polygon class="cls-130" points="56.71 55.54 57.03 55.67 53.64 57.14 52.88 57.41 52.76 57.24 56.71 55.54"/><polygon class="cls-130" points="51.99 57.58 52.2 57.66 49.62 58.6 51.99 57.58"/><polygon class="cls-55" points="57.36 56.48 57.55 56.36 57.62 56.32 57.89 56.33 57.63 56.49 57.36 56.48"/><polygon class="cls-131" points="57.63 56.49 57.89 56.33 58.23 57.4 57.99 57.58 57.63 56.49"/><polygon class="cls-25" points="57.36 56.48 57.63 56.49 57.99 57.58 57.96 57.61 57.71 57.57 57.48 56.85 57.36 56.48"/><polygon class="cls-55" points="68.86 59.61 68.93 59.61 69.13 59.62 68.88 59.78 68.61 59.77 68.8 59.65 68.86 59.61"/><polygon class="cls-131" points="68.88 59.78 69.13 59.62 69.17 59.74 69.02 60.2 68.88 59.78"/><polygon class="cls-80" points="84.38 50.27 84.38 50.24 84.83 49.31 84.38 50.27"/><path class="cls-80" d="M101.4,62.41,87.17,66.57,86.51,66l-.57-4.24L84.38,50.27l.45-1,14.24-4.16.66.61,2.12,15.72Zm-8.23-3.63L91.86,49.1l-.49-.45-5.65,1.65-.33.69,1.31,9.68.49.45,5.65-1.65ZM99,47l-.49-.45-5.65,1.65-.33.69,1.31,9.68.49.45L100,57.38l.33-.69ZM87,63l1.66-.49-.1-.75-1.66.49Z"/><polygon class="cls-22" points="85.94 61.73 86.51 65.96 85.94 61.73 85.94 61.73"/><polygon class="cls-20" points="84.38 50.27 85.94 61.73 84.38 50.27 84.38 50.27"/><polygon class="cls-28" points="162.91 3.27 163.17 3.35 163.3 3.39 162.99 3.98 161.88 4.3 162.55 3.17 162.91 3.27"/><polygon class="cls-63" points="159.05 30.6 163.47 33.75 163.75 33.95 166.52 33.14 166.52 33.79 163.59 34.65 158.37 30.92 158.87 30.71 159.05 30.6"/><polygon class="cls-3" points="166.52 33.14 163.75 33.95 163.47 33.75 166.04 33 166.52 33.14"/><polygon class="cls-96" points="158.37 30.92 163.59 34.65 163.1 34.51 158.19 31 158.37 30.92"/><polygon class="cls-6" points="81.99 18.46 81.81 18.33 81.99 18.21 82.37 18.16 82.42 18.15 82.85 18.21 82.97 18.29 83.03 18.33 82.85 18.46 82.42 18.51 81.99 18.46"/><polygon class="cls-58" points="83.03 22.05 83.03 31.53 82.85 32.33 82.85 22.08 83.03 22.05"/><polygon class="cls-82" points="88.08 17.96 87.88 18.17 87.88 17.81 88.08 17.96"/><polygon class="cls-4" points="72.21 55.88 72.94 55.66 72.98 55.98 72.8 55.93 72.2 55.88 72.21 55.88"/><polygon class="cls-5" points="72.94 55.66 72.21 55.88 72.78 54.18 72.94 55.66"/><polygon class="cls-132" points="72.94 55.66 72.78 54.18 72.82 54.08 72.99 54.09 74 63.52 73.78 63.49 73.77 63.42 73.67 62.42 73.61 61.86 73.6 61.83 73.56 61.44 73.02 56.42 73.01 56.31 72.99 56.11 72.98 55.99 72.94 55.66"/><polygon class="cls-22" points="74 63.52 72.99 54.09 74 63.52 73.75 63.94 69.47 64.77 73.75 63.94 74 63.52"/><polygon class="cls-11" points="70.4 61.15 70.82 59.93 70.82 60.16 70.82 60.32 70.82 60.83 70.75 61.17 70.4 61.27 70.4 61.15"/><polygon class="cls-4" points="70.82 60.83 70.82 60.32 70.92 60.29 70.82 60.83"/><polygon class="cls-6" points="70.92 60.29 70.82 60.32 70.82 60.16 70.95 60.12 70.92 60.29"/><polygon class="cls-7" points="70.95 60.12 70.82 60.16 70.82 59.93 71.19 58.83 70.95 60.12"/><polygon class="cls-13" points="70.4 61.15 70.4 61.27 70.35 61.29 70.4 61.15"/><polygon class="cls-133" points="69.43 64.71 69.27 64.45 69.48 63.85 69.83 63.5 69.92 64.23 69.87 64.3 69.58 64.64 69.54 64.69 69.43 64.71"/><polygon class="cls-134" points="69.64 63.37 69.65 63.35 69.94 63.44 70.18 64.56 69.93 64.61 69.87 64.3 69.92 64.23 69.83 63.5 69.64 63.37"/><polygon class="cls-135" points="73.78 63.49 74 63.52 73.75 63.94 73.53 63.91 73.66 63.7 73.78 63.49"/><polygon class="cls-15" points="73.78 63.49 73.66 63.7 73.38 63.78 72.95 63.66 73.77 63.42 73.78 63.49"/><polygon class="cls-136" points="73.53 63.91 73.75 63.94 69.47 64.77 69.43 64.71 69.54 64.69 69.58 64.68 69.93 64.61 70.18 64.56 70.51 64.5 71.33 64.34 72.95 64.03 73.38 63.94 73.53 63.91"/><polygon class="cls-22" points="71.33 64.34 70.51 64.5 70.42 64.08 71.03 64.25 71.33 64.34"/><polygon class="cls-137" points="69.58 64.68 69.54 64.69 69.58 64.64 69.58 64.68"/><polygon class="cls-8" points="70.92 60.29 70.95 60.12 71.19 58.83 71.69 57.37 70.96 61.3 70.74 61.24 70.75 61.17 70.82 60.83 70.92 60.29"/><polygon class="cls-26" points="69.64 63.37 69.83 63.5 69.48 63.85 69.64 63.37"/><polygon class="cls-15" points="70.75 61.17 70.74 61.24 70.96 61.3 72.01 60.99 72.12 61.02 70.26 61.57 70.35 61.29 70.4 61.27 70.75 61.17"/><polygon class="cls-14" points="72.01 60.99 70.96 61.3 71.69 57.37 72.19 55.93 72.98 55.99 72.99 56.11 72.96 56.29 72.59 56.19 72.12 56.15 71.26 60.77 72.01 60.99"/><polygon class="cls-18" points="72.12 61.02 72.01 60.99 71.26 60.77 72.12 56.15 73.02 56.42 73.56 61.44 73.02 61.29 72.44 61.12 72.12 61.02"/><polygon class="cls-16" points="72.2 55.88 72.8 55.93 72.98 55.98 72.19 55.93 72.2 55.88"/><polygon class="cls-4" points="72.96 56.29 72.99 56.11 73.01 56.31 72.96 56.29"/><polygon class="cls-17" points="72.12 56.15 72.59 56.19 72.96 56.29 73.01 56.31 73.02 56.42 72.12 56.15"/><polygon class="cls-14" points="70.26 61.57 72.12 61.02 72.44 61.12 72.44 61.52 72.14 61.43 70.1 62.03 70.26 61.57"/><polygon class="cls-4" points="72.44 61.52 72.44 61.12 73.02 61.29 73.02 61.66 73.13 61.69 73.13 61.73 72.44 61.52"/><polygon class="cls-12" points="73.13 61.69 73.02 61.66 73.02 61.29 73.56 61.44 73.6 61.83 73.55 61.82 73.13 61.69"/><polygon class="cls-13" points="73.13 61.73 73.13 61.69 73.55 61.82 73.55 61.85 73.13 61.73"/><polygon class="cls-11" points="73.55 61.85 73.55 61.82 73.6 61.83 73.61 61.86 73.55 61.85"/><polygon class="cls-19" points="72.14 61.43 72.44 61.52 73.13 61.73 73.55 61.85 73.61 61.86 73.67 62.42 71.03 63.2 69.82 62.84 70.1 62.03 72.14 61.43"/><polygon class="cls-19" points="71.03 63.2 73.67 62.42 73.77 63.42 72.95 63.66 72.95 63.76 71.03 63.2"/><polygon class="cls-138" points="71.03 64.25 70.42 64.08 70.25 63.24 69.74 63.09 69.82 62.84 71.03 63.2 71.03 64.25"/><polygon class="cls-138" points="71.03 64.25 71.03 63.2 72.95 63.76 72.95 64.03 71.33 64.34 71.03 64.25"/><polygon class="cls-31" points="72.95 64.03 72.95 63.76 72.95 63.66 73.38 63.78 73.38 63.94 72.95 64.03"/><polygon class="cls-14" points="73.38 63.94 73.38 63.78 73.66 63.7 73.53 63.91 73.38 63.94"/><polygon class="cls-39" points="70.25 63.24 70.42 64.08 70.51 64.5 70.18 64.56 69.94 63.44 70.25 63.24"/><polygon class="cls-139" points="70.25 63.24 69.94 63.44 69.65 63.35 69.74 63.09 70.25 63.24"/><polygon class="cls-11" points="69.87 64.3 69.93 64.61 69.58 64.68 69.58 64.64 69.87 64.3"/><polygon class="cls-4" points="73.41 55.52 75.04 55.05 75.04 56.14 75.46 56.26 75.88 56.14 75.88 54.63 76.08 54.58 76.08 57.21 75.16 56.94 73.51 56.45 73.41 55.52"/><polygon class="cls-5" points="75.04 55.05 73.41 55.52 73.24 53.97 73.53 53.52 75.04 53.23 75.04 55.05"/><polygon class="cls-5" points="76.08 54.58 75.88 54.63 75.88 54.6 76.08 54.34 76.08 54.58"/><polygon class="cls-11" points="75.88 56.14 75.46 56.26 75.46 53.21 75.88 53.33 75.88 54.6 75.88 54.63 75.88 56.14"/><polygon class="cls-13" points="75.46 53.21 75.46 56.26 75.04 56.14 75.04 55.05 75.04 53.23 75.46 53.15 75.46 53.21"/><polygon class="cls-12" points="75.88 53.33 75.46 53.21 75.46 53.15 76.08 53.03 76.08 53.39 75.88 53.33"/><polygon class="cls-5" points="75.88 53.33 76.08 53.39 76.08 54.34 75.88 54.6 75.88 53.33"/><polygon class="cls-22" points="76.08 54.34 76.08 53.39 76.08 53.03 78.85 52.5 78.85 58.1 78.3 57.93 78.37 57.55 78.15 57.49 77.1 57.42 77.09 57.5 76.08 57.21 76.08 54.58 76.08 54.34"/><polygon class="cls-22" points="78.85 58.1 78.85 52.5 79.25 52.42 79.56 52.67 80.35 58.54 78.85 58.1"/><polygon class="cls-136" points="74.63 63.77 74.56 63.72 77.79 63.09 77.87 63.08 79.34 62.8 79.93 62.68 80.57 62.56 80.79 62.58 74.63 63.77"/><polygon class="cls-22" points="79.39 52.39 79.77 52.69 81.05 62.13 80.79 62.58 74.63 63.77 80.79 62.58 81.05 62.13 79.77 52.69 79.39 52.39 79.39 52.39"/><polygon class="cls-51" points="79.39 52.39 79.77 52.69 79.56 52.67 79.25 52.42 79.39 52.39"/><polygon class="cls-110" points="79.56 52.67 79.77 52.69 81.05 62.13 80.84 62.11 80.4 58.86 80.35 58.54 79.56 52.67"/><polygon class="cls-135" points="80.84 62.11 81.05 62.13 80.79 62.58 80.57 62.56 80.84 62.11"/><polygon class="cls-12" points="80.84 62.11 80.57 62.56 79.93 62.68 79.75 60.95 78.76 60.66 78.26 60.51 78.05 62.42 77.49 62.25 78.24 58.23 80.4 58.86 80.84 62.11"/><polygon class="cls-9" points="78.3 57.93 78.85 58.1 80.35 58.54 80.4 58.86 78.24 58.23 78.3 57.93"/><polygon class="cls-140" points="78.26 60.51 78.76 60.66 78.58 62.26 78.05 62.42 78.26 60.51"/><polygon class="cls-9" points="78.58 62.26 78.76 60.66 79.75 60.95 79.93 62.68 79.34 62.8 78.05 62.42 78.58 62.26"/><polygon class="cls-12" points="78.05 62.42 79.34 62.8 77.87 63.08 77.79 63.06 77.79 62.49 77.46 62.4 77.49 62.25 78.05 62.42"/><polygon class="cls-4" points="77.79 63.06 77.87 63.08 77.79 63.09 77.79 63.06"/><polygon class="cls-17" points="73.51 56.45 75.16 56.94 74.69 56.91 73.52 56.56 73.51 56.45"/><polygon class="cls-17" points="74.69 56.91 75.16 56.94 76.08 57.21 77.09 57.5 77.07 57.6 74.69 56.91"/><polygon class="cls-18" points="73.52 56.56 74.69 56.91 73.97 60.76 73.52 56.56"/><polygon class="cls-18" points="73.97 60.76 74.69 56.91 77.07 57.6 76.2 62.22 74.06 61.59 73.97 60.76"/><polygon class="cls-14" points="78.24 58.23 77.49 62.25 77.46 62.4 77.43 62.54 76.31 62.87 77.32 57.48 78.37 57.55 78.3 57.93 78.24 58.23"/><polygon class="cls-15" points="76.31 62.87 77.43 62.54 77.46 62.4 77.79 62.49 74.31 63.51 74.26 63.47 74.24 63.28 76.11 62.74 76.09 62.8 76.31 62.87"/><polygon class="cls-8" points="76.31 62.87 76.09 62.8 76.11 62.74 76.13 62.6 76.14 62.57 76.2 62.22 77.07 57.6 77.09 57.5 77.1 57.42 77.32 57.48 76.31 62.87"/><polygon class="cls-16" points="77.32 57.48 77.1 57.42 78.15 57.49 78.37 57.55 77.32 57.48"/><polygon class="cls-12" points="74.06 61.59 76.2 62.22 76.14 62.57 76.06 62.55 75.46 62.38 74.1 61.98 74.06 61.59"/><polygon class="cls-4" points="75.46 62.38 76.06 62.55 76.06 62.58 75.41 62.39 75.46 62.38"/><polygon class="cls-4" points="75.46 62.38 75.41 62.39 74.6 62.15 74.1 62.01 74.1 61.98 75.46 62.38"/><polygon class="cls-13" points="76.06 62.58 76.06 62.55 76.14 62.57 76.13 62.6 76.06 62.58"/><polygon class="cls-19" points="74.1 62.01 74.6 62.15 74.13 62.29 74.1 62.01"/><polygon class="cls-19" points="74.13 62.29 74.6 62.15 75.41 62.39 76.06 62.58 76.13 62.6 76.11 62.74 74.24 63.28 74.13 62.29"/><polygon class="cls-14" points="77.79 63.06 77.79 63.09 74.56 63.72 74.31 63.51 77.79 62.49 77.79 63.06"/><polygon class="cls-6" points="99.3 53.54 99.36 53.52 99.37 53.56 99.3 53.54"/><polygon class="cls-10" points="99.36 53.52 99.3 53.54 99.3 54.08 99.24 54.09 99.24 53.53 99.36 53.49 99.36 53.52"/><polygon class="cls-13" points="99.3 54.08 99.3 53.54 99.37 53.56 99.44 54.12 99.3 54.08"/><polygon class="cls-9" points="99.3 54.08 99.44 54.12 99.45 54.15 99.24 54.09 99.3 54.08"/><polygon class="cls-9" points="99.36 53.49 99.24 53.53 95.85 52.53 96.28 52.41 96.38 52.38 99.32 53.24 99.36 53.49"/><polygon class="cls-12" points="95.85 52.53 99.24 53.53 99.24 54.09 99.45 54.15 99.72 56.16 99.72 56.76 99.55 57.09 98.48 57.41 98.47 57.23 98.29 55.53 97.3 55.24 96.8 55.09 96.59 56.99 94.69 56.44 94.65 56.12 94.47 54.41 93.48 54.12 93.45 54.11 93.13 51.74 95.43 52.41 95.43 52.98 95.85 53.1 95.85 53.07 95.85 52.53"/><polygon class="cls-139" points="99.55 57.09 99.72 56.76 99.78 56.63 100.05 56.63 99.83 57.1 99.55 57.09"/><polygon class="cls-22" points="99.72 56.16 99.45 54.15 99.44 54.12 99.37 53.56 99.36 53.52 99.36 53.49 99.32 53.24 98.51 47.2 98.78 47.21 100.05 56.63 99.78 56.63 99.72 56.16"/><polygon class="cls-10" points="99.72 56.76 99.72 56.16 99.78 56.63 99.72 56.76"/><polygon class="cls-13" points="95.85 52.53 95.85 53.07 95.48 52.96 95.48 52.42 95.86 52.53 95.85 52.53"/><polygon class="cls-10" points="95.48 52.42 95.48 52.96 95.43 52.98 95.43 52.41 95.96 52.26 95.96 52.31 95.9 52.3 95.48 52.42"/><polygon class="cls-6" points="95.48 52.42 95.9 52.3 95.96 52.31 96.28 52.41 95.86 52.53 95.48 52.42"/><polygon class="cls-9" points="95.48 52.96 95.85 53.07 95.85 53.1 95.43 52.98 95.48 52.96"/><polygon class="cls-22" points="96.28 52.41 95.96 52.31 95.96 52.26 93.09 51.42 92.76 48.97 92.98 48.51 98.25 46.96 98.51 47.2 99.32 53.24 96.38 52.38 96.28 52.41"/><polygon class="cls-9" points="95.96 52.26 95.43 52.41 93.13 51.74 93.09 51.42 95.96 52.26"/><polygon class="cls-9" points="94.65 56.12 94.69 56.44 96.59 56.99 97.12 56.84 98.47 57.23 98.48 57.41 95.37 58.32 93.96 57.91 93.68 55.84 94.65 56.12"/><polygon class="cls-22" points="98.47 57.23 97.12 56.84 97.3 55.24 98.29 55.53 98.47 57.23"/><polygon class="cls-22" points="94.65 56.12 93.68 55.84 93.47 54.24 93.48 54.12 94.47 54.41 94.65 56.12"/><polygon class="cls-12" points="93.96 57.91 95.37 58.32 94.29 58.63 94.03 58.4 93.96 57.91"/><polygon class="cls-140" points="93.48 54.12 93.47 54.24 93.45 54.11 93.48 54.12"/><polygon class="cls-140" points="97.3 55.24 97.12 56.84 96.59 56.99 96.8 55.09 97.3 55.24"/><polygon class="cls-51" points="98.25 46.96 98.45 46.91 98.78 47.21 98.51 47.2 98.25 46.96"/><polygon class="cls-141" points="99.83 57.1 94.36 58.7 94.29 58.63 95.37 58.32 98.48 57.41 99.55 57.09 99.83 57.1"/><polygon class="cls-9" points="91.67 51.84 91.73 51.86 91.74 51.9 91.61 51.86 91.67 51.84"/><polygon class="cls-13" points="91.73 51.86 91.67 51.84 91.67 51.41 91.73 51.86"/><polygon class="cls-10" points="91.67 51.41 91.67 51.84 91.61 51.86 91.61 51.3 91.65 51.28 91.67 51.41"/><polygon class="cls-9" points="91.65 51.28 91.61 51.3 91.56 51.28 91.65 51.25 91.65 51.28"/><polygon class="cls-39" points="91.65 51.25 91.56 51.28 91.56 55.52 88.69 56.36 88.69 57.08 88.75 57.09 88.75 60.11 87.05 60.61 86.91 60.48 85.63 51.06 85.86 50.59 91.13 49.05 91.38 49.28 91.65 51.25"/><polygon class="cls-4" points="87.05 60.61 88.75 60.11 88.75 60.15 88.93 60.2 87.16 60.72 87.05 60.61"/><polygon class="cls-13" points="88.75 60.11 88.75 57.09 88.75 56.38 89.16 56.5 89.16 57.22 89.16 60.13 88.93 60.2 88.75 60.15 88.75 60.11"/><polygon class="cls-11" points="89.16 60.13 89.16 57.22 89.58 57.34 89.58 59.87 89.58 60.01 89.16 60.13"/><polygon class="cls-4" points="89.58 60.01 89.58 59.87 91.67 59.26 91.67 59.29 91.86 59.34 89.58 60.01"/><polygon class="cls-39" points="91.67 59.26 89.58 59.87 89.58 57.34 91.67 57.95 91.67 59.26"/><polygon class="cls-6" points="89.16 56.5 88.75 56.38 89.16 56.26 89.58 56.38 89.16 56.5"/><polygon class="cls-9" points="89.58 56.38 89.16 56.26 88.75 56.38 88.69 56.36 91.56 55.52 92.25 55.73 92.49 57.47 89.16 56.5 89.58 56.38"/><polygon class="cls-12" points="88.69 57.08 88.69 56.36 88.75 56.38 88.75 57.09 88.69 57.08"/><polygon class="cls-12" points="89.16 57.22 89.16 56.5 92.49 57.47 92.56 58.01 92.56 58.21 92.51 58.19 92.09 58.07 91.67 57.95 89.58 57.34 89.16 57.22"/><polygon class="cls-13" points="92.56 58.21 92.56 58.01 92.66 58.71 92.56 58.91 92.56 58.21"/><polygon class="cls-22" points="92.56 58.21 92.56 58.91 92.51 59.02 92.51 58.19 92.56 58.21"/><polygon class="cls-13" points="91.67 59.29 91.67 59.26 91.67 57.95 92.09 58.07 92.09 59.28 91.86 59.34 91.67 59.29"/><polygon class="cls-11" points="92.09 59.28 92.09 58.07 92.51 58.19 92.51 59.02 92.43 59.18 92.09 59.28"/><polygon class="cls-12" points="91.56 55.52 91.56 51.28 91.61 51.3 91.61 51.86 91.74 51.9 92.25 55.73 91.56 55.52"/><polygon class="cls-51" points="91.13 49.05 91.33 48.99 91.66 49.29 91.38 49.28 91.13 49.05"/><polygon class="cls-141" points="92.7 59.19 87.24 60.78 87.16 60.72 88.93 60.2 89.16 60.13 89.58 60.01 91.86 59.34 92.09 59.28 92.43 59.18 92.7 59.19"/><polygon class="cls-139" points="92.93 58.72 92.7 59.19 92.43 59.18 92.51 59.02 92.56 58.91 92.66 58.71 92.93 58.72"/><polygon class="cls-22" points="91.66 49.29 92.93 58.72 92.66 58.71 92.56 58.01 92.49 57.47 92.25 55.73 91.74 51.9 91.73 51.86 91.67 51.41 91.65 51.28 91.65 51.25 91.38 49.28 91.66 49.29"/><polygon class="cls-5" points="62.78 43.95 62.74 44.25 62.52 44.31 62.58 43.9 63.39 42.8 63.79 42.68 64.25 42.82 63.45 43.05 62.79 43.92 62.78 43.95"/><polygon class="cls-5" points="63.45 42.58 63.79 42.68 63.39 42.8 62.58 43.9 62.52 44.31 62.15 44.42 59.96 43.6 63.45 42.58"/><polygon class="cls-51" points="61.21 41.93 63.45 42.58 59.96 43.6 59.61 43.47 60.72 42.14 61.21 41.93"/><polygon class="cls-51" points="60.72 42.14 59.61 43.47 58.57 43.08 60.72 42.14"/><polygon class="cls-20" points="62.78 43.95 62.79 43.92 63.06 44.07 63.06 44.1 62.78 43.95 62.78 43.95"/><polygon class="cls-20" points="62.74 44.25 62.78 43.95 63.06 44.1 63.05 44.16 62.74 44.25"/><polygon class="cls-118" points="62.79 43.92 63.45 43.05 63.72 43.2 63.06 44.07 62.79 43.92"/><polygon class="cls-23" points="63.45 43.05 64.25 42.82 64.64 42.93 63.72 43.2 63.45 43.05"/><polygon class="cls-5" points="63.05 44.16 63.06 44.1 63.06 44.07 63.72 43.2 64.64 42.93 65.94 43.31 63.05 44.16"/><polygon class="cls-22" points="75.94 47.2 76.08 46.3 76.08 47.18 75.94 47.2"/><polygon class="cls-22" points="76.08 47.18 76.08 46.3 76.08 46.27 77.92 46.81 76.08 47.18"/><polygon class="cls-22" points="69.39 46.54 69.52 46.5 69.51 46.57 69.39 46.54"/><polygon class="cls-5" points="70.62 46.18 70.53 46.8 69.51 46.57 69.52 46.5 70.62 46.18"/><path class="cls-79" d="M91.86,49.1l1.31,9.68-.33.69-5.65,1.65-.49-.45L85.39,51l.33-.69,5.65-1.65Zm-6,1.49-.23.47,1.27,9.43.14.13.12.11.07.07,5.47-1.6.23-.47-1.27-9.43-.33-.3-.2.06Z"/><path class="cls-79" d="M98.5,46.57,99,47l1.31,9.68-.33.69L94.31,59l-.49-.45-1.31-9.68.33-.69ZM92.76,49l.33,2.44,0,.32.32,2.37,0,.13.21,1.59L94,57.9l.07.49.26.24.07.07,5.47-1.6.23-.47-1.27-9.43-.33-.3-.2.06L93,48.5Z"/><polygon class="cls-142" points="88.66 62.56 87 63.05 86.89 62.3 88.55 61.82 88.66 62.56"/><polygon class="cls-143" points="72.95 41.36 74.12 38.74 77.92 39.85 77.89 39.91 72.95 41.36"/><polygon class="cls-7" points="72.95 41.36 77.89 39.91 79.4 40.35 78.59 43.01 72.95 41.36"/><polygon class="cls-26" points="77.89 39.91 77.92 39.85 79.42 40.29 79.4 40.35 77.89 39.91"/><path class="cls-144" d="M66.39,43.31l-4.27,1.25-3.94-1.48,3-1.3Zm-2.14-.5-.46-.14-.34-.1-2.24-.65-.5.22-2.15.94,1,.39.35.13,2.19.82.37-.11.22-.06.31-.09,2.9-.85-1.3-.38Z"/><path class="cls-81" d="M69.35,65.11,69,64.5l3.65-10.66.61-.58,6.23-1.2.55.44,1.32,9.7-.4.67ZM74,63.52,73,54.1l-.17,0,0,.11-.58,1.69,0,.06-.49,1.44-.5,1.46-.37,1.1-.42,1.22,0,.14-.1.28L70.1,62l-.28.82-.08.25-.09.26v0l-.16.48-.2.6.16.26,0,.06,4.28-.83Zm-.47-10-.29.45.17,1.55.1.93v.11L74,60.76l.09.83,0,.39v0l0,.28.11,1,0,.19.05,0,.25.2.07.05,6.16-1.19.26-.45-1.28-9.44-.38-.3-.15,0-.4.08L76.08,53l-.62.12-.42.08Z"/><polygon class="cls-31" points="79.46 64.9 79.38 64.15 81.33 63.77 81.41 64.52 79.46 64.9"/><polygon class="cls-39" points="83.57 51.66 84.84 61.09 84.74 61.28 82.86 61.83 82.72 61.7 81.62 53.59 81.62 51.91 81.67 51.81 83.24 51.36 83.57 51.66"/><polygon class="cls-4" points="84.74 61.28 84.61 61.55 83.25 61.95 82.87 61.84 84.74 61.28"/><polygon class="cls-9" points="83.25 61.95 83.05 62.01 82.87 61.84 83.25 61.95"/><polygon class="cls-22" points="81.62 53.59 81.44 52.28 81.62 51.91 81.62 53.59"/><path class="cls-79" d="M83.77,51.47l1.31,9.68-.33.69L83,62.34l-.49-.45L81.2,52.22l.33-.69L83.29,51Zm1.07,9.62-1.27-9.43-.33-.3-1.57.46,0,.1-.18.37.18,1.31,1.1,8.11.14.13.19.18.2-.06,1.36-.4.13-.27Z"/><path class="cls-144" d="M68.91,46.55l4.27-1.25,5.22,1.53L74,47.7Zm9,.26-1.84-.54-2.89-.84-2.57.75-1.1.32-.13,0,.12,0,1,.23,3.44.79,2-.39.13,0Z"/><g class="cls-145"><polygon class="cls-146" points="65.68 73.13 64.45 73.49 67.02 71.61 68.26 71.25 65.68 73.13"/><polygon class="cls-147" points="62.15 72.87 57.98 71.65 57.17 69.23 60.54 70.21 62.15 72.87"/><polygon class="cls-148" points="60.54 70.21 57.17 69.23 57.17 68.14 60.79 69.2 60.89 69.95 60.54 70.21"/><polygon class="cls-149" points="62.15 72.87 60.54 70.21 60.89 69.95 64.07 71.46 62.15 72.87"/><polygon class="cls-150" points="68.26 71.25 67.02 71.61 66.71 69.3 67.95 68.94 68.26 71.25"/><polygon class="cls-146" points="67.02 71.61 64.45 73.49 62.15 72.87 64.07 71.46 67.02 71.61"/><polygon class="cls-151" points="66.71 69.3 67.02 71.61 64.07 71.46 63.82 69.61 66.71 69.3"/><polygon class="cls-152" points="63.82 69.61 64.07 71.46 60.89 69.95 60.79 69.2 63.82 69.61"/><polygon class="cls-150" points="44.9 64.07 46.3 64.96 46.2 65.65 44.65 65.78 44.9 64.07"/><polygon class="cls-147" points="49.92 67.11 50.74 69.53 46.58 68.31 46.56 66.12 49.92 67.11"/><polygon class="cls-148" points="46.3 64.96 49.92 66.02 49.92 67.11 46.56 66.12 46.2 65.65 46.3 64.96"/><polygon class="cls-153" points="56.53 44.88 62.83 47.24 62.85 47.6 61.68 49.05 54.34 46.29 54.88 45.88 55.98 45.03 56.53 44.88"/><polygon class="cls-154" points="61.68 49.05 58.4 57.28 57.96 57.61 53.82 57.07 49.01 58.82 48.86 58.58 54.34 46.29 61.68 49.05"/><polygon class="cls-147" points="46.56 66.12 46.58 68.31 44.65 65.78 46.2 65.65 46.56 66.12"/><polygon class="cls-155" points="64.31 47.67 72.39 49.52 72.58 49.88 72.19 50.95 72.01 51.46 62.6 49.31 63.77 47.87 64.31 47.67"/><polygon class="cls-156" points="62.6 49.31 72.01 51.46 67.69 64.09 67.34 64.19 63.99 60.05 59.49 58.05 59.32 57.55 62.6 49.31"/><polygon class="cls-150" points="92.98 48.51 98.45 46.91 98.78 47.21 100.05 56.63 99.83 57.1 94.36 58.7 94.03 58.4 92.76 48.97 92.98 48.51"/><polygon class="cls-150" points="92.7 59.19 87.24 60.78 86.91 60.48 85.63 51.06 85.86 50.59 91.33 48.99 91.66 49.29 92.93 58.72 92.7 59.19"/><polygon class="cls-157" points="61.21 41.93 65.94 43.31 62.15 44.42 58.57 43.08 61.21 41.93"/><polygon class="cls-148" points="73.53 53.52 79.39 52.39 79.77 52.69 81.05 62.13 80.79 62.58 74.63 63.77 74.26 63.47 73.24 53.97 73.53 53.52"/><polygon class="cls-148" points="72.82 54.08 72.99 54.09 73.98 63.41 74 63.52 73.75 63.94 69.47 64.77 69.27 64.45 72.82 54.08"/><polygon class="cls-157" points="73.19 45.43 77.92 46.81 73.97 47.59 69.39 46.54 73.19 45.43"/><polygon class="cls-150" points="83.57 51.66 84.84 61.09 84.61 61.55 83.05 62.01 82.72 61.7 81.44 52.28 81.67 51.81 83.24 51.36 83.57 51.66"/></g><g class="cls-158"><path class="cls-159" d="M167.48,5.83c.12-.22.35-.53.64-.38a1.18,1.18,0,0,1,.29.82C168,6.3,167.78,6,167.48,5.83Z"/><path class="cls-159" d="M166.11,5.6c.39-.17.68.3.72.64-.14.51-.39,1-.57,1.49-.37,1-.78,2-1.17,3-.1.2-.16.47-.41.54-.83.27-1.7.38-2.53.61-1.22.33-2.47.55-3.68.89-.26.05-.4.29-.55.47-.26.35-.59.63-.86,1-.48.61-1.07,1.13-1.54,1.75-.14.2-.38.1-.5,0,.45-.87,1-1.68,1.47-2.54a15.46,15.46,0,0,1,1.7-2.1c.76-.77,1.43-1.63,2.19-2.4.57-.21,1.18-.29,1.77-.46,1.31-.27,2.6-.64,3.91-.91a3.35,3.35,0,0,0-1.22-1.43A3.32,3.32,0,0,1,166.11,5.6Z"/><path class="cls-159" d="M153,6.88l.25,0a7.23,7.23,0,0,1,1.06,1.48c-.32.12-.66.21-1,.35a2,2,0,0,0-.35.47A10.47,10.47,0,0,1,153,6.88Z"/><path class="cls-159" d="M78.78,19a.91.91,0,0,1,.74.24,3.48,3.48,0,0,1,.21,1.08c-.3-.33-.69-.57-1-.92C78.77,19.34,78.78,19.14,78.78,19Z"/><path class="cls-159" d="M82.56,20.25c.47.07,1.17,0,1.3.6a6.08,6.08,0,0,1,2.28.19,3,3,0,0,1-.29.78l-.71-.46a4.06,4.06,0,0,0-1.28.13c-.07.13-.15.27-.24.39-.27-.28-.41-.65-.68-.93S82.5,20.55,82.56,20.25Z"/><path class="cls-159" d="M80.14,21.55c.61-.18,1.22-.38,1.85-.5a2.22,2.22,0,0,1-.45,1,4.43,4.43,0,0,0-.68-.34c-.3,0-.6,0-.9-.06Z"/><path class="cls-159" d="M81.78,22.06a2.81,2.81,0,0,0,1.23,0A7.72,7.72,0,0,1,83,23a1.36,1.36,0,0,0-.9-.35,2.59,2.59,0,0,0-.35.2C81.76,22.58,81.78,22.32,81.78,22.06Z"/><path class="cls-159" d="M79.68,23.91c0-.24.28-.33.44-.47a.9.9,0,0,1,.39.94c-.23.07-.45.17-.67.26A3.84,3.84,0,0,1,79.68,23.91Z"/><path class="cls-159" d="M80.25,24.75l.39,0a11.2,11.2,0,0,0,.3,1.72,7.53,7.53,0,0,1-.57.53,9.46,9.46,0,0,1-.32-1.58A1.12,1.12,0,0,1,80.25,24.75Z"/><path class="cls-159" d="M103.83,28.38a1.92,1.92,0,0,1,1.21.36,4.16,4.16,0,0,1-.54.22c-1.41.39-2.8.85-4.21,1.19l-.19-.26a.84.84,0,0,1-.64-.35,14.56,14.56,0,0,0-1,1.17c-1,.33-2,.61-3,.88a8.19,8.19,0,0,0-1.31-.25c.09-.18.3-.2.46-.26,1.17-.37,2.36-.66,3.52-1,.47-.15.64-.65.77-1.07a1.72,1.72,0,0,1,.74,0c.08.16.15.33.22.5C101.16,29.23,102.47,28.72,103.83,28.38Z"/><path class="cls-159" d="M157.49,31a15.37,15.37,0,0,1,1.88-.73,4.5,4.5,0,0,1-.19.41c1,.65,1.92,1.37,2.89,2,.13.11.31.19.39.35a4.94,4.94,0,0,1,0,.72c.31.32.8.45,1,.85a2.54,2.54,0,0,1-1.12-.61l-3.21-2.29a6,6,0,0,0-.86-.58c-.3-.1-.58.1-.85.21l-9.1,3.83c-.16.08-.32,0-.47,0a1.49,1.49,0,0,1,.66-.41C151.52,33.51,154.5,32.25,157.49,31Z"/><path class="cls-159" d="M90.49,32.28a2.41,2.41,0,0,1,1.53.24,6.61,6.61,0,0,1,1.06.39,4,4,0,0,0,.56.62c.62.47,1.21,1,1.82,1.44a3.8,3.8,0,0,1,.81.9c.45.64.91,1.27,1.35,1.92.16.22.32.47.61.54.71.21,1.42.39,2.12.63.44.17,1-.08,1.38.26-.17.39-.72.36-1.08.44s-.71-.25-1.06-.41c-.77-.24-1.55-.46-2.33-.68-.27-.05-.42-.3-.58-.5-.5-.72-1-1.42-1.52-2.14A5.36,5.36,0,0,0,94,34.86c-.48-.4-1-.76-1.47-1.16-.21-.18-.5-.18-.74-.28-.77-.3-1.6-.4-2.38-.64l0-.1A2.85,2.85,0,0,1,90.49,32.28Z"/><path class="cls-159" d="M108.61,32.92c.1.12.22.21.33.33.17-.06.34-.13.51-.18-.15.42-.26.93-.67,1.17A5.41,5.41,0,0,1,108.61,32.92Z"/><path class="cls-159" d="M189,33.24a6.75,6.75,0,0,1,1.38-.34c0,.07,0,.2,0,.27a9.61,9.61,0,0,1-2.8,1.05l-8.91,2.6c-.55.13-.94.6-1.49.75s-.86-.11-1.28,0c-.85.22-1.7.49-2.54.74a7.59,7.59,0,0,0-1.43.77c-.76.41-1.48.87-2.22,1.31s-1.56.86-2.29,1.37a1.87,1.87,0,0,0-.56.64c.23.13.6.15.66.46s-.21.35-.35.48c-.29.22-.58.44-.86.68.89-.24,1.77-.51,2.65-.76a.59.59,0,0,1,.68.24,5.42,5.42,0,0,1-1.53.54c-.37.1-.73.23-1.09.34s-.9.09-1.33.24a5.68,5.68,0,0,0-1,.69,7.19,7.19,0,0,1-1,.41l-6.38,2.12c-2.32.87-4.69,1.58-7,2.39a7.18,7.18,0,0,0-.93.3c1.26.23,2.45.7,3.69,1,1.61.51,3.26.92,4.86,1.45l.11.19a47.69,47.69,0,0,1-5.21,1.54,2.3,2.3,0,0,1-1-.18c-2.47-.7-4.93-1.46-7.4-2.16a1.33,1.33,0,0,0-.87.13c-1.16.42-2.35.75-3.5,1.21-2.86,1-5.76,1.87-8.6,2.92l-6.19,2.06c-2.32.87-4.69,1.59-7,2.39a1.25,1.25,0,0,0-.53.49c-.7,1-1.42,1.89-2.12,2.85a3.08,3.08,0,0,1-.64.68L112.45,67a9.2,9.2,0,0,1-1.86,1.3c-2,.77-3.92,1.57-5.89,2.34-.78.24-1.56.46-2.35.68-.31-.52-.07-1.16-.33-1.69-.31-.71-.57-1.43-.87-2.15a2.48,2.48,0,0,0-.55-.73c-.19.07-.43.09-.52.3s.07.47.18.68a8.05,8.05,0,0,1,.75,1.75,5,5,0,0,1,.43,2.18,11.27,11.27,0,0,0-1.92.49c-1.24.39-2.5.69-3.73,1.11-2.31.64-4.6,1.34-6.9,2a6,6,0,0,1-1.48.37,7.34,7.34,0,0,0-.74-2.84,4.14,4.14,0,0,0-.75-1.46.52.52,0,0,0-.63-.09c-.23.43.16.83.31,1.21l.79,2A3,3,0,0,1,86.54,76c-.62.1-1.21.36-1.84.44-1.32.2-2.62.56-3.95.74a3.43,3.43,0,0,0,0-.48A4.43,4.43,0,0,1,79.1,77a7.49,7.49,0,0,1-.83-1.18,4.81,4.81,0,0,1-.51-.94,1.81,1.81,0,0,0,1,.12c.91-.26,1.81-.54,2.72-.82,0-.21,0-.42,0-.62-.56-.09-1.07-.34-1.62-.45-.79.17-1.54.47-2.32.67a2.11,2.11,0,0,1-.79-.1c-.16.05-.24.22-.36.33.27.8.66,1.56.94,2.36a1.62,1.62,0,0,1,.85.6c.35.49.9.8,1.17,1.35-.58.12-.74-.74-1.29-.63-2.42.42-4.82,1-7.23,1.41-.95.17-1.88-.27-2.83-.07a6.74,6.74,0,0,1-2.54,0c-.61-.13-1.24-.11-1.84-.27s-1.14-.36-1.72-.5c-.77-.18-1.53.33-2.28.07-1.64-.52-3.31-1-5-1.47a9.64,9.64,0,0,1-1.89-.62c-.23-.17-.1-.45-.05-.67-.68-.23-1.37-.39-2.05-.6a6.69,6.69,0,0,1-1.75-.62,12.14,12.14,0,0,1-1.13-.75l.8-.76c-1.09.46-2.27.67-3.38,1-4.83,1.41-9.66,2.81-14.48,4.24a2.65,2.65,0,0,1-1.59.21c-1.84-.54-3.66-1.1-5.5-1.61,0-.05,0-.16,0-.21,2.35-.64,4.68-1.38,7-2,6.47-1.91,13-3.79,19.43-5.7a1.14,1.14,0,0,1,.46,0c0,.25.17.48.23.73,2.61.81,5.24,1.55,7.87,2.31.34.11.69.18,1,.26-.52-.79-1.05-1.56-1.54-2.37a12.17,12.17,0,0,1-.95-1.54c1,.23,2,.57,3,.86.84.23,1.72.29,2.58.43a6.85,6.85,0,0,0,2,0c.62-.09,1.25-.11,1.87-.23.46-.08.89-.28,1.35-.34l.1.05a4.24,4.24,0,0,1,.2,1.26c-.16.22-.49.25-.74.36a7,7,0,0,1-1.27,2.1,24.33,24.33,0,0,0,2-1.56c.32-.06.66-.06,1-.14,2.52-.46,5-1,7.55-1.49,1.43-.24,2.85-.55,4.27-.83.86-.18,1.73-.31,2.57-.57l18-5.27A23.57,23.57,0,0,0,105,61.43c.86-.34,1.67-.81,2.53-1.14a3.15,3.15,0,0,0,1-.56L112,55.54a5,5,0,0,0,.57-1.38c.22-.59.36-1.21.55-1.81.09-.21.14-.5.4-.56,4.06-1.16,8.1-2.37,12.15-3.55.73-.18,1.42-.47,2.17-.59l-.06-.14a17,17,0,0,1-2.34-.71,1.05,1.05,0,0,1,.56-.32c.83-.27,1.65-.56,2.49-.78.61-.19,1.25-.3,1.86-.5a1.07,1.07,0,0,1,.61-.09c.68.18,1.34.41,2,.61a2,2,0,0,0,1.1.07c7.75-2.29,15.52-4.53,23.27-6.82a3.88,3.88,0,0,1,1.1-.26c.75.21,1.49.5,2.22.77s1.58.51,2.36.8a2.07,2.07,0,0,0,.54.14,20.57,20.57,0,0,0,4.59-1.89c.91-.36,1.77-.85,2.66-1.27.64-.27,1.26-.57,1.89-.86l-.24-.21a2.66,2.66,0,0,1,.83-.41,6.16,6.16,0,0,1,1.59.21,3.55,3.55,0,0,0,1.26-.1,3.11,3.11,0,0,1,.69.19,2.24,2.24,0,0,1-.53.46,1.36,1.36,0,0,0,.9.15c2.72-.82,5.47-1.59,8.19-2.41C186.6,34,187.81,33.57,189,33.24Zm-28.33,8.6-18.12,5.3a6.92,6.92,0,0,0-1.37.42c1.12-.22,2.2-.6,3.31-.88,5-1.39,10-2.73,15-4.11a13,13,0,0,0,1.36-.6,5.72,5.72,0,0,0,1.13-.54C161.55,41.53,161.13,41.7,160.7,41.84Z"/><path class="cls-159" d="M85.73,33.82a5.73,5.73,0,0,1,2-.66c-.07.19-.28.23-.44.32-.79.34-1.58.7-2.37,1a3.91,3.91,0,0,0-1,.62c-.28-.1-.57-.18-.86-.25-.12-.18-.21-.42-.43-.51a1.52,1.52,0,0,0-.84,0c0-.23,0-.45,0-.67a2.94,2.94,0,0,0,1.21,0c0,.26,0,.52,0,.79.23-.11.49-.15.73-.25.14.1.3.29.5.21C84.76,34.26,85.23,34,85.73,33.82Z"/><path class="cls-159" d="M109,34.6a3,3,0,0,1,1.61.82c-.08.18-.07.42-.25.54a3.31,3.31,0,0,1-.62.18,8.58,8.58,0,0,0-.19,1.14c-.22-.12-.17-.43-.24-.64A11.25,11.25,0,0,1,109,34.6Z"/><path class="cls-159" d="M137.92,35.64l.46.08c1.64.45,3.27,1,4.91,1.41-.07.23-.32.3-.51.4L115.33,49.06a6.81,6.81,0,0,1-1.24.47c.06-.27.15-.55.45-.63l10.71-4.46c.6-.21,1.18-.46,1.75-.73l11.08-4.62c.59-.23,1.17-.51,1.77-.71-.32-.52-.71-1-1.08-1.47A4.73,4.73,0,0,1,137.92,35.64Z"/><path class="cls-159" d="M74,37.89a4.92,4.92,0,0,1,.69-.14c-.13.32-.56.36-.72.65-.42.74-.63,1.59-1.11,2.31a5.31,5.31,0,0,1-1.09.37c-.75.2-1.49.48-2.25.64a12.37,12.37,0,0,1,0-1.94,5,5,0,0,0-1.2.43c-.33.66-.47,1.41-.83,2.06-.75.4-1.64.43-2.39.81l.78.19c-.08.17-.28.19-.44.25-1.09.3-2.16.64-3.25.92-.34,0-.64-.29-1-.22a1.56,1.56,0,0,0-1,.59c-.35.37-.78.64-1.13,1l.44.19c0,.8-.32,1.55-.32,2.35-.26,2.08-.63,4.15-.9,6.24.24.29.65,0,.95,0,0-.64,0-1.28,0-1.91a1.88,1.88,0,0,1,.54-.16l.39.16c-.39,1.22-.95,2.37-1.38,3.57a3.42,3.42,0,0,1-.58,1.21,6.11,6.11,0,0,1-.44-1.09l-.43.09a6.09,6.09,0,0,1,.28,1.15c-.71,0-1.41-.15-2.12-.23a4.62,4.62,0,0,0-1.94-.17c-.86.26-1.67.69-2.55.86.21-.4.8-.33,1-.72a3,3,0,0,0,.3-1.11c.13-.9.31-1.79.44-2.69a29.8,29.8,0,0,1,.59-3.75c-.48.92-.85,1.91-1.3,2.85-.77,1.53-1.4,3.13-2.12,4.68a3.75,3.75,0,0,1-1.38,2.06,2.14,2.14,0,0,1-.7.22c.34-1,.8-1.89,1.23-2.82.52-1.25,1.16-2.45,1.65-3.71a11.79,11.79,0,0,1,.59-1.38c.69-1.5,1.31-3,2-4.5.22-.43.27-1,.7-1.28.72-.54,1.42-1.11,2.15-1.65a9.3,9.3,0,0,1,2.25-1.55A33,33,0,0,1,62,41.35c1.26-.38,2.52-.72,3.79-1.07Zm-19.12,10a.87.87,0,0,0-.55.47,13.55,13.55,0,0,0-.54,3c-.17.84-.24,1.7-.47,2.53-.09.48-.14,1-.25,1.45-.12.66-.16,1.35-.35,2,.57-.33,1.21-.5,1.79-.79s1.16-.51,1.74-.75c.28-.12.59-.3.65-.62.21-.89.23-1.81.44-2.69.13-.57.11-1.16.21-1.74.16-.9.23-1.82.44-2.71a6.72,6.72,0,0,0,.14-1.53C57,46.94,56,47.41,54.85,47.85Z"/><path class="cls-159" d="M74.19,38.8c.81.14,1.58.45,2.37.66s1.86.57,2.8.8a5.55,5.55,0,0,1-.42,1.5,18.51,18.51,0,0,1-2.11-.55c-.53-.19-1.09-.28-1.6-.51a8,8,0,0,1-.44-.76A5.21,5.21,0,0,1,74.19,38.8Z"/><path class="cls-159" d="M69.49,43.53a2.69,2.69,0,0,1,1-.17,2.58,2.58,0,0,1-1,1A4.42,4.42,0,0,1,69.49,43.53Z"/><path class="cls-159" d="M69.58,46.54a2,2,0,0,1,1-.31c0,.2.06.46-.17.58A1.36,1.36,0,0,1,69.58,46.54Z"/><path class="cls-159" d="M76.05,46.28c.59.15,1.18.33,1.75.52-.11.18-.35.14-.53.2a12.59,12.59,0,0,1-1.36.22A9.12,9.12,0,0,1,76.05,46.28Z"/><path class="cls-159" d="M61.4,46.77a3.24,3.24,0,0,1,1.46.58l0,.22c-.27.43-.64.79-.94,1.2a9.25,9.25,0,0,0-.92,2l-.16.17A9.08,9.08,0,0,1,61,49.33C61.17,48.48,61.3,47.63,61.4,46.77Z"/><path class="cls-159" d="M97.32,47.23a4.74,4.74,0,0,1,1.21-.3l.12.13a11.68,11.68,0,0,0,.22,2.88,3.48,3.48,0,0,1-.35,1.25c-.21.51-.33,1.05-.55,1.56-.07.23-.34.22-.53.29-.53,1.17-.83,2.43-1.31,3.62-.13.41-.71.32-.91.68a6,6,0,0,0-.35,1.08c-.23.24-.7.33-.9,0-.12-1.16-.28-2.32-.45-3.48-.23-1.77-.47-3.54-.71-5.3-.07-.37-.15-.83.16-1.11C94.41,48.05,95.87,47.67,97.32,47.23Z"/><path class="cls-159" d="M63.19,48.57l.22-.11a5.45,5.45,0,0,1-.13,1.35c-.18,1.19-.31,2.39-.55,3.57a5.5,5.5,0,0,1-1.57-.43c.23-.7.55-1.36.79-2.06A5.57,5.57,0,0,1,63.19,48.57Z"/><path class="cls-159" d="M68.85,48.75a6.34,6.34,0,0,1,1.34.28c-.09.79-.2,1.59-.36,2.37a1,1,0,0,0,.39,0,19.09,19.09,0,0,1,2-.55,10.23,10.23,0,0,1-.43,1.3c-.6,1.83-1.22,3.66-1.87,5.47-.07.28-.41.16-.62.19.14.08.28.17.43.25a3.08,3.08,0,0,1-.42,1.22,2.41,2.41,0,0,0-.58-.41,4.13,4.13,0,0,0-.66.07c0-.34,0-.69,0-1s-.4-.78-.65-1.13l-.3,0a1.73,1.73,0,0,0-.12.74c0,.69-.21,1.37-.14,2.07,0,.18.15.3.24.45a10.23,10.23,0,0,1,0,1.69,8.83,8.83,0,0,1-1.27-.81,1.25,1.25,0,0,1,.69-.18c0-.44,0-.89,0-1.33-.08-.18-.29-.33-.21-.55.13-.74.26-1.48.43-2.21a2,2,0,0,0,0-.63.67.67,0,0,0-.67-.27,1.48,1.48,0,0,0-.54.88,10.42,10.42,0,0,0-.52,2.2,1.2,1.2,0,0,1-.15.55,4.83,4.83,0,0,1-.86.49c-.19.11-.46,0-.39-.24s.55-.09.5-.35c-.47-.12-.94-.23-1.4-.39a10.93,10.93,0,0,1-2-.6c-.25-.19-.55-.43-.58-.76a8.18,8.18,0,0,1,1.56.4c.76.21,1.51.49,2.26.73a6.26,6.26,0,0,0,.23-.61c.24-.89.61-1.74.94-2.6a.8.8,0,0,0-.4-1,11.32,11.32,0,0,1-1.71-.94c1.54-.35,3-.88,4.55-1.28a2.12,2.12,0,0,0,.72-.3,2.81,2.81,0,0,0,.39-1.28C68.68,50,68.79,49.37,68.85,48.75Z"/><path class="cls-159" d="M91.14,49a.23.23,0,0,1,.35.12,5.87,5.87,0,0,0,0,.61q.54,4,1.09,8.06a1.65,1.65,0,0,1-.15,1.37c-1.58.5-3.17.92-4.75,1.42-.21,0-.48.18-.65,0a2.77,2.77,0,0,1-.24-1c-.34-2.7-.73-5.39-1.09-8.09a1,1,0,0,1,.15-.88,9.51,9.51,0,0,1,1.39-.46C88.52,49.82,89.82,49.4,91.14,49Z"/><path class="cls-159" d="M83.15,51.4c.3,0,.39.35.45.58.42,3,.8,6,1.22,9a.65.65,0,0,1-.47.7A8.53,8.53,0,0,1,83,62c-.3-.07-.31-.42-.36-.66-.4-3-.82-6-1.22-9a.69.69,0,0,1,.21-.56A10.62,10.62,0,0,1,83.15,51.4Z"/><path class="cls-159" d="M79.11,52.43a.41.41,0,0,1,.56.27,4.41,4.41,0,0,0,0,1.08c.14,1.08.3,2.15.44,3.23a7.43,7.43,0,0,1,.13,1.47,7,7,0,0,1-1.37-.33.49.49,0,0,0-.41.1,3.23,3.23,0,0,0-.17,1.23c0,.35-.09.7-.12,1.06,0,.85-.18,1.68-.18,2.52L77.79,63a4.31,4.31,0,0,1-.3-.88c.15-1,.41-2.06.56-3.09a6,6,0,0,0,.2-1.45,4.2,4.2,0,0,1-1.15-.13,2.84,2.84,0,0,1-.21.63c-.37.55-.76,1.07-1.16,1.6a2.81,2.81,0,0,0-.5,1c0,.43.11.86.14,1.29.28,0,.55.16.83.22a3.16,3.16,0,0,0-.13.52,1.22,1.22,0,0,0-.48,0,1.17,1.17,0,0,0-.58,1,4.7,4.7,0,0,1-.54,0c-.12-.37.27-.54.44-.8s.08-.25.12-.37a3.43,3.43,0,0,1-.78.39A10.41,10.41,0,0,1,74,61c-.18-.8.27-1.56.33-2.35a13.35,13.35,0,0,1,.26-1.92,2,2,0,0,1-1.12-.43c0-.33,0-.66-.07-1a3.88,3.88,0,0,1,0-1.58c.09-.21.34-.26.54-.31C75.61,53.11,77.36,52.8,79.11,52.43Z"/><path class="cls-159" d="M72.22,55.81a4.24,4.24,0,0,1,.57-1.48,13.18,13.18,0,0,1,.16,1.92A.61.61,0,0,1,72.22,55.81Z"/><path class="cls-159" d="M96.84,55.14a7.12,7.12,0,0,1,1.49.42c0,.18,0,.37,0,.55a2.62,2.62,0,0,1-1.09-.27C97,55.69,96.94,55.39,96.84,55.14Z"/><path class="cls-159" d="M70.71,60c.12-.28.12-.65.4-.83a11.42,11.42,0,0,1-.32,1.95l-.1.08-.25-.06C70.36,60.8,70.63,60.42,70.71,60Z"/><path class="cls-159" d="M67.28,60.11a3.84,3.84,0,0,1,1.3-.4,4.44,4.44,0,0,1,.31,1,3.36,3.36,0,0,1-.5,1.23c-.16.16-.38.1-.57.09-.07-.6,0-1.19,0-1.79Z"/><path class="cls-159" d="M78.38,60.63a5.27,5.27,0,0,1,1.34.32,11.73,11.73,0,0,1,.17,1.41,11.79,11.79,0,0,0-1.24-.24A4.22,4.22,0,0,0,78.38,60.63Z"/><path class="cls-159" d="M71.33,60.89a13.12,13.12,0,0,1,2.26.57c0,.18,0,.37,0,.55a4.41,4.41,0,0,1-1.32-.29A1.37,1.37,0,0,1,71.33,60.89Z"/><path class="cls-159" d="M72.92,62.75a1.81,1.81,0,0,1,.78-.4,3,3,0,0,1,0,.91c-.1.19-.34.23-.5.35s-.3.31-.45.46a2.5,2.5,0,0,1-1.07.23c0-.27-.09-.58.09-.82A12.87,12.87,0,0,1,72.92,62.75Z"/><path class="cls-159" d="M69.21,64.45a4.28,4.28,0,0,1,.42-1.13.64.64,0,0,1,.33.61c0,.38-.27.66-.57.82Z"/><path class="cls-159" d="M47.36,65.26c.62.13,1.22.36,1.84.51a4.5,4.5,0,0,1,.72.25A8.49,8.49,0,0,0,50,67.15c.12.47.34.92.42,1.4a1.07,1.07,0,0,1-.94-.4l-1.4-1.87A5,5,0,0,1,47.36,65.26Z"/><path class="cls-159" d="M102.33,71.48c.38.12.49.6.59.95a1.31,1.31,0,0,0-.43.18A1.88,1.88,0,0,1,102.33,71.48Z"/><path class="cls-159" d="M87.47,75.9a1.48,1.48,0,0,1,.66.85,1.73,1.73,0,0,1-.57.16C87.53,76.57,87.47,76.24,87.47,75.9Z"/><path class="cls-159" d="M80.69,78.06a1.65,1.65,0,0,1,1.67.1l.15.17a8.65,8.65,0,0,1-1.35,0A.45.45,0,0,1,80.69,78.06Z"/><path class="cls-159" d="M78.19,78.74a7.19,7.19,0,0,1,1.26-.34c.62.12,1.15.49,1.77.62.77.2,1.54-.25,2.32,0-.16.22-.47.2-.7.27-.7.11-1.36.39-2.07.43a8,8,0,0,1-1.44.13c-.53-.07-1.13-.1-1.47-.58C78,79.06,78,78.79,78.19,78.74Z"/></g></g></g></svg>